<svg viewBox="0 0 393 449" xmlns="http://www.w3.org/2000/svg" xml:space="preserve" fill-rule="evenodd" clip-rule="evenodd" stroke-linejoin="round" stroke-miterlimit="2">
  <g transform="matrix(1 0 0 1.47541 -1304.93 -1904.23)">
    <g id="about_illustration">
      <path d="M320.582 1692c30.396-37.84 117.615 9.17 168.418 18 88.532 15.39 129.821-38.72 148.901 36.6 17.619 69.56-64.184 65.58-61.432 127.76 3.141 70.96-51.096 84.96-73.902 118.85-32.893 48.88-38.446 113.38-82.76 93.23-40.791-18.55-14.176-72.55-30.814-93.23-35.621-44.29-80.932 20.11-106.372-14.81-37.52-51.5 38.867-103.57 37.961-140.58-1.298-53.02-19.228-121.88 0-145.82Z" fill="#C0D0DC" transform="matrix(1 0 0 .52264 1056.781 479.386)"/>
      <path d="M384.356 1776.85c38.24-22.95 70.863-165.1 119.232-143.11 81.079 36.88-20.641 112.07 28.49 241.91 24.145 63.81 90.193 77.22 29.291 157.29-35.131 46.19-93.287-51.06-141.562-88.5-42.351-32.84-168.891-39.48-173.626-106.62-4.977-70.56 91.119-32.74 138.175-60.97Z" fill="#648BA9" transform="matrix(1 0 0 .52264 1059.269 478.264)"/>
      <circle cx="3337.94" cy="2688.99" r="46.068" fill="#3FAE26" transform="matrix(.7883 0 0 .5343 -1055.98 55.22)"/>
      <circle cx="3337.94" cy="2688.99" r="46.068" fill="#3FAE26" transform="matrix(.7883 0 0 .5343 -1210.322 38.666)"/>
      <circle cx="3337.94" cy="2688.99" r="46.068" fill="#3FAE26" transform="matrix(.7883 0 0 .5343 -1175.05 65.566)"/>
      <circle cx="3337.94" cy="2688.99" r="46.068" fill="#3FAE26" transform="matrix(.52689 0 0 .35711 -347.776 542.567)"/>
      <circle cx="3337.94" cy="2688.99" r="46.068" fill="#3FAE26" transform="matrix(.52689 0 0 .35711 -332.933 558.734)"/>
      <path d="M590.458 1686.16c3.693.33 6.61 3.04 7.454 7 3.491 16.34 1.952 34.08-10.307 47.04-17.722 18.74-47.058 23.08-60.635 46.82-4.281 7.49-6.391 16.07-7.146 24.67 0 0-.781 3.86-3.131 5.61-4.757 3.54-13.121-.31-12.478-7.43 1.515-16.79 8.685-34.58 22.448-47.09 12.819-11.65 30.039-18.01 43.786-28.33 5.82-4.36 10.858-10.24 12.614-17.38 1.714-6.96.869-14.38-.676-21.38 0 0 .357-9.63 8.071-9.53Z" fill="#5FB2F2" transform="matrix(.74623 .1043 -.1539 .50578 1463.507 474.958)"/>
      <path d="M520.877 1748.67c6.418-10.54 14.522-20.73 25.627-25.73 2.921-1.32 6.916 1.34 5.893 4.57-.533 1.68-1.995 2.19-4.397 3.5-13.09 7.18-21.534 21.42-27.343 35.63-5.616 13.73-8.754 29.22-4.85 43.3 0 0-.145 5.25-4.055 5-2.73-.17-3.807-3.38-4.455-6.66-4-20.31 2.699-41.57 13.58-59.61Z" fill="#5FB2F2" transform="matrix(.51337 .58164 -.85816 .34795 2865.427 523.975)"/>
      <path d="M520.877 1748.67c6.418-10.54 14.522-20.73 25.627-25.73 2.921-1.32 6.916 1.34 5.893 4.57-.533 1.68-1.995 2.19-4.397 3.5-13.09 7.18-21.534 21.42-27.343 35.63-5.616 13.73-8.754 29.22-4.85 43.3 0 0-.145 5.25-4.055 5-2.73-.17-3.807-3.38-4.455-6.66-4-20.31 2.699-41.57 13.58-59.61Z" fill="#5FB2F2" transform="matrix(-.30857 -.6447 .9512 -.20915 -124.996 2155.954)"/>
      <path fill="#C631A3" d="M407.109 1951H435.8v47h-28.691z" transform="matrix(.8332 -.37478 .55296 .56473 116.962 561.822)"/>
      <path d="M435.801 1951h-28.692l-7.74 58.95h45.67l-9.238-58.95Z" fill="#C631A3" transform="matrix(0 -.67778 1 0 -376.55 1753.778)"/>
      <path fill="#C631A3" d="M407.109 1951H435.8v47h-28.691z" transform="matrix(-.8332 -.37478 -.55296 .56473 2881.806 561.822)"/>
      <path d="M435.801 1951h-28.692l-9 36.15 15.346 18.08 8-12.65 7.448 12.65 14.898-18.08-8-36.15Z" fill="#3B3B3B" transform="matrix(.8332 -.37478 .30589 .3124 624.978 1080.655)"/>
      <path d="M435.801 1951h-28.692l-9 36.15 15.346 18.08 8-12.65 7.448 12.65 14.898-18.08-8-36.15Z" fill="#3B3B3B" transform="matrix(-.8332 -.37478 -.30589 .3124 2373.79 1080.655)"/>
      <path d="M392.781 1623.55a16.014 16.014 0 0 1-4.672-13.19 15.987 15.987 0 0 1 7.479-11.82c-.003-.01-.002-.01-.001-.01a16 16 0 0 1 15.394-.81 16.014 16.014 0 0 1 8.948 12.55c2.028 17.42 3.28 39.5-1.531 49.96-8.282 18.02-30.367 26.17-48.756 35.91-14.625 7.74-34.286 18.28-40.665 34.83-5.045 13.08-5.828 27.66-4.421 41.11.266 2.54.673 5.06 1.256 7.55 2.179 9.29 7.278 17.9 14.733 23.87 14.996 12.02 41.479 15.09 60.777 17.45 27.951 3.43 56.23 3.07 83.721 12.63 14.118 4.91 27.616 13.63 34.875 27.21 9.363 17.52 9.301 39.82-2.206 55.94-13.569 19.01-38.005 29.21-44.272 53.19-2.741 10.48 6.661 20 16.923 29.22a16.28 16.28 0 0 1 5.343 13.37 16.245 16.245 0 0 1-7.364 12.37l-.003.01a16.194 16.194 0 0 1-12.351 2.22 16.215 16.215 0 0 1-10.247-7.24c-1.939-3.11-3.533-5.93-3.961-7.43-6.221-21.8-6.871-46.01 6.438-65.39 8.953-13.04 22.744-22.01 33.457-33.65 4.391-4.77 8.102-10.35 9.582-16.63 3.074-13.05-1.044-28.01-10.162-37.25-9.757-9.89-23.855-13.86-37.085-16.49-33.805-6.72-69.996-4.51-102.374-15.48-20.345-6.9-38.657-21.88-43.983-44.6-1.946-8.3-2.317-16.93-2.089-25.46.478-17.83 5.089-36.08 16.414-50.28 11.99-15.02 30.244-23.61 47.749-32.37 11.131-5.6 23.095-11.69 26.738-24.11 2.737-9.34-5.045-18.67-13.684-27.18Z" fill="#990065" transform="matrix(1 0 0 .67778 1062.137 216.304)"/>
      <path d="M1238.95 1488.5c-4.27-19.97-16.19-90.81 11.67-157.54 25.93-62.09 78.62-102.18 99.67-116.33a7.39 7.39 0 0 1 6.87-.63c2.26.94 3.9 2.94 4.39 5.33 4.74 24.92 13.27 90.57-12.66 152.66-26.04 62.36-79.07 102.53-99.94 116.51h109.43c-4.06-18.77-13.97-78.5 9.45-134.58 21.86-52.34 66.39-86.27 85.41-98.94a7.391 7.391 0 0 1 6.86-.61 7.38 7.38 0 0 1 4.38 5.31c4.36 22.42 11.54 77.95-10.32 130.3-21.63 51.78-65.44 85.54-84.79 98.52h90.37c-3.45-16.19-11.29-65.34 7.99-111.53 17.61-42.16 52.87-69.98 69.48-81.3a7.363 7.363 0 0 1 6.94-.67c2.28.95 3.93 2.98 4.4 5.4 3.63 19.78 8.63 64.41-8.98 106.57-17.72 42.44-53.33 70.35-69.8 81.53h71.93c-2.87-12.44-8.04-43.85 4.14-73.03 10.89-26.07 32.78-43.53 45.07-51.74a7.377 7.377 0 0 1 6.92-.66c2.28.95 3.93 2.97 4.4 5.39 2.81 14.51 5.77 42.35-5.12 68.42-10.83 25.94-32.55 43.36-44.88 51.62h32c18.65-8 55.84-21.17 98.64-21.17 41.4 0 77.54 12.32 96.75 20.36a7.387 7.387 0 0 1 4.52 6.81c0 2.97-1.78 5.66-4.52 6.81-19.21 8.04-55.35 20.36-96.75 20.36-43.79 0-81.72-13.79-99.91-21.72h-31.92c12.16 8.02 34.63 25.64 45.71 52.17 10.88 26.07 7.92 53.91 5.11 68.42a7.367 7.367 0 0 1-4.39 5.39c-2.28.95-4.87.7-6.93-.66-12.29-8.21-34.18-25.67-45.06-51.74-12.37-29.63-6.86-61.54-4.01-73.58h-72.88c16.08 10.79 52.59 38.92 70.62 82.08 17.6 42.16 12.6 86.79 8.97 106.57a7.363 7.363 0 0 1-4.4 5.41c-2.28.95-4.88.69-6.94-.68-16.61-11.32-51.87-39.14-69.47-81.3-19.51-46.72-11.26-96.47-7.88-112.08h-91.31c18.91 12.56 63.67 46.54 85.61 99.07 21.86 52.35 14.68 107.88 10.32 130.3a7.335 7.335 0 0 1-4.38 5.31c-2.25.94-4.81.71-6.86-.61-19.01-12.67-63.55-46.6-85.41-98.94-23.65-56.64-13.31-116.99-9.32-135.13h-110.38c20.27 13.45 74.37 53.86 100.76 117.06 25.93 62.09 17.41 127.74 12.66 152.66a7.385 7.385 0 0 1-4.38 5.33c-2.25.94-4.83.7-6.87-.63-21.06-14.14-73.74-54.24-99.67-116.33-28.13-67.35-15.72-138.9-11.56-158.09H1199v-11.45h39.95Z" fill="#3FAE26" transform="matrix(-.04354 -.17167 .21594 -.02516 1219.469 1659.13)"/>
      <path d="M435.801 1951h-28.692l-7.74 58.95h45.67l-9.238-58.95Z" fill="#C631A3" transform="matrix(0 -.67778 -1 0 3369.392 1753.174)"/>
      <path d="M1238.95 1488.5c-4.27-19.97-16.19-90.81 11.67-157.54 25.93-62.09 78.62-102.18 99.67-116.33a7.39 7.39 0 0 1 6.87-.63c2.26.94 3.9 2.94 4.39 5.33 4.74 24.92 13.27 90.57-12.66 152.66-26.04 62.36-79.07 102.53-99.94 116.51h109.43c-4.06-18.77-13.97-78.5 9.45-134.58 21.86-52.34 66.39-86.27 85.41-98.94a7.391 7.391 0 0 1 6.86-.61 7.38 7.38 0 0 1 4.38 5.31c4.36 22.42 11.54 77.95-10.32 130.3-21.63 51.78-65.44 85.54-84.79 98.52h90.37c-3.45-16.19-11.29-65.34 7.99-111.53 17.61-42.16 52.87-69.98 69.48-81.3a7.363 7.363 0 0 1 6.94-.67c2.28.95 3.93 2.98 4.4 5.4 3.63 19.78 8.63 64.41-8.98 106.57-17.72 42.44-53.33 70.35-69.8 81.53h71.93c-2.87-12.44-8.04-43.85 4.14-73.03 10.89-26.07 32.78-43.53 45.07-51.74a7.377 7.377 0 0 1 6.92-.66c2.28.95 3.93 2.97 4.4 5.39 2.81 14.51 5.77 42.35-5.12 68.42-10.83 25.94-32.55 43.36-44.88 51.62h32c18.65-8 55.84-21.17 98.64-21.17 41.4 0 77.54 12.32 96.75 20.36a7.387 7.387 0 0 1 4.52 6.81c0 2.97-1.78 5.66-4.52 6.81-19.21 8.04-55.35 20.36-96.75 20.36-43.79 0-81.72-13.79-99.91-21.72h-31.92c12.16 8.02 34.63 25.64 45.71 52.17 10.88 26.07 7.92 53.91 5.11 68.42a7.367 7.367 0 0 1-4.39 5.39c-2.28.95-4.87.7-6.93-.66-12.29-8.21-34.18-25.67-45.06-51.74-12.37-29.63-6.86-61.54-4.01-73.58h-72.88c16.08 10.79 52.59 38.92 70.62 82.08 17.6 42.16 12.6 86.79 8.97 106.57a7.363 7.363 0 0 1-4.4 5.41c-2.28.95-4.88.69-6.94-.68-16.61-11.32-51.87-39.14-69.47-81.3-19.51-46.72-11.26-96.47-7.88-112.08h-91.31c18.91 12.56 63.67 46.54 85.61 99.07 21.86 52.35 14.68 107.88 10.32 130.3a7.335 7.335 0 0 1-4.38 5.31c-2.25.94-4.81.71-6.86-.61-19.01-12.67-63.55-46.6-85.41-98.94-23.65-56.64-13.31-116.99-9.32-135.13h-110.38c20.27 13.45 74.37 53.86 100.76 117.06 25.93 62.09 17.41 127.74 12.66 152.66a7.385 7.385 0 0 1-4.38 5.33c-2.25.94-4.83.7-6.87-.63-21.06-14.14-73.74-54.24-99.67-116.33-28.13-67.35-15.72-138.9-11.56-158.09H1199v-11.45h39.95Z" fill="#FC5A00" transform="matrix(.11428 -.15602 .19625 .06603 1115.759 1521.937)"/>
      <path d="M372.657 1765c-12.239-20.25-9.077-46.24 7.661-62.97 2.471-2.46 4.945-4.94 7.352-7.34a6.021 6.021 0 0 0-6.618-9.8c-10.49 4.48-22.526 9.61-33.702 14.38-22.607 9.64-36.367 32.82-34.016 57.28l1.301 13.54 58.022-5.09Z" fill="#3B3B3B" transform="matrix(.72443 -.46723 .68935 .491 -17.412 718.758)"/>
      <path d="M372.657 1765c-12.239-20.25-9.077-46.24 7.661-62.97 2.471-2.46 4.945-4.94 7.352-7.34a6.021 6.021 0 0 0-6.618-9.8c-10.49 4.48-22.526 9.61-33.702 14.38-22.607 9.64-36.367 32.82-34.016 57.28l1.301 13.54 58.022-5.09Z" fill="#3B3B3B" transform="matrix(-.72443 -.46723 -.68935 .491 3019.089 718.758)"/>
      <circle cx="403.882" cy="1806.2" r="107.201" fill="#3B3B3B" transform="matrix(.21301 0 0 .14438 1547.372 1206.848)"/>
      <circle cx="403.882" cy="1806.2" r="107.201" fill="#E33EBD" transform="matrix(.8181 0 0 .55449 1168.973 461.696)"/>
      <circle cx="403.882" cy="1806.2" r="107.201" fill="#3B3B3B" transform="matrix(-.21301 0 0 .14438 1445.47 1206.242)"/>
      <circle cx="403.882" cy="1806.2" r="107.201" fill="#EEE" transform="matrix(.376 0 0 .25485 1305.767 995.47)"/>
      <circle cx="2053.38" cy="3379.32" r="29.784" fill="#5FB2F2" transform="matrix(.65011 0 0 .44063 308.207 -106.597)"/>
      <circle cx="2053.38" cy="3379.32" r="29.784" fill="#5FB2F2" transform="matrix(.40182 0 0 .27235 841.94 524.573)"/>
      <circle cx="2053.38" cy="3379.32" r="29.784" fill="#5FB2F2" transform="matrix(-.39166 -.06087 .08981 -.26546 1847.492 2461.926)"/>
      <circle cx="403.882" cy="1806.2" r="107.201" fill="#EEE" transform="matrix(.376 0 0 .25485 1389.279 995.47)"/>
      <circle cx="403.882" cy="1806.2" r="107.201" fill="#3B3B3B" transform="matrix(.21301 0 0 .14438 1371.595 1195.005)"/>
      <circle cx="403.882" cy="1806.2" r="107.201" fill="#EEE" transform="matrix(.0964 0 0 .06534 1406.201 1326.56)"/>
      <circle cx="403.882" cy="1806.2" r="107.201" fill="#3B3B3B" transform="matrix(.21301 0 0 .14438 1455.107 1195.005)"/>
      <circle cx="403.882" cy="1806.2" r="107.201" fill="#EEE" transform="matrix(.0964 0 0 .06534 1489.713 1325.94)"/>
    </g>
  </g>
</svg>
