<svg viewBox="0 0 263 177" xmlns="http://www.w3.org/2000/svg" xml:space="preserve" fill-rule="evenodd" clip-rule="evenodd" stroke-linecap="round" stroke-linejoin="round" stroke-miterlimit="1.5">
  <g transform="matrix(1.35833 0 0 .58518 -4084.189 -270.53)">
    <g id="contact_illustration">
      <path d="M1235.17 3511a28.37 28.37 0 0 1-4.93-16.02c0-15.75 12.77-28.51 28.51-28.51h141.74c15.75 0 28.51 12.76 28.51 28.51 0 5.94-1.82 11.45-4.92 16.02h30.82c15.74 0 28.51 12.76 28.51 28.51 0 7.85-3.17 14.95-8.3 20.11h12.06c14.23 0 25.76 11.53 25.76 25.75v.06c18.31 3.79 32.07 20.01 32.07 39.45v.89c0 22.25-18.04 40.29-40.29 40.29h-31.95a27.314 27.314 0 0 1-7.77 22.93 27.314 27.314 0 0 1-19.33 8.01h-28.02c1.52 3.43 2.36 7.22 2.36 11.21 0 15.32-12.42 27.75-27.74 27.75h-141.52c-15.32 0-27.74-12.43-27.74-27.75 0-3.99.84-7.78 2.36-11.21h-20.02c-7.25 0-14.21-2.88-19.33-8.01a27.314 27.314 0 0 1-8.01-19.33c0-1.21.08-2.42.24-3.6h-20.95c-22.25 0-40.29-18.04-40.29-40.29v-.89c0-22.25 18.04-40.29 40.29-40.29h7.65c.41-13.86 11.78-24.97 25.74-24.97h20.1c-5.13-5.16-8.3-12.26-8.3-20.11 0-15.75 12.76-28.51 28.51-28.51h4.18Z" fill="#E7EEF4" transform="matrix(.45145 0 0 1.10905 2502.538 -3381.197)"/>
      <circle cx="1393.5" cy="3586.5" r="127.5" fill="#E4E2F7" stroke="#9D96E4" stroke-width="9.72" stroke-dasharray="68.05,48.61,0,0" transform="matrix(.39283 0 0 .96504 2568.175 -2855.315)"/>
      <path d="m1385.05 3279.93-127 178.94 5 92.06 122-271Z" fill="#564AD0" transform="matrix(.13016 0 0 .31975 2935.609 -566.01)"/>
      <path d="m1379.73 3345.62-253 166 265 27-12-193Z" fill="#665BD4" transform="matrix(.13016 0 0 .31975 2936.304 -587.015)"/>
      <path d="m1462 3363-152 176 30 95 12.5-90 109.5-181Z" fill="#564AD0" transform="matrix(.13016 0 0 .31975 2925.596 -592.572)"/>
      <path d="M.583-.091a.155.155 0 0 1-.031-.003.096.096 0 0 1-.028-.011.088.088 0 0 1-.041-.048.179.179 0 0 1-.063.047.165.165 0 0 1-.07.014.126.126 0 0 1-.057-.011.114.114 0 0 1-.041-.031.137.137 0 0 1-.025-.048A.223.223 0 0 1 .226-.3a.241.241 0 0 1 .059-.108.24.24 0 0 1 .12-.07.324.324 0 0 1 .125-.009.347.347 0 0 1 .063.013.031.031 0 0 1 .021.037l-.042.163a.197.197 0 0 0-.007.047c0 .017.003.028.011.034.007.007.017.01.03.01A.052.052 0 0 0 .64-.196a.112.112 0 0 0 .027-.035.278.278 0 0 0 .025-.119.31.31 0 0 0-.018-.11.22.22 0 0 0-.136-.128.33.33 0 0 0-.225.008.296.296 0 0 0-.154.163.378.378 0 0 0 .002.26c.016.04.039.074.067.101A.292.292 0 0 0 .33.005c.039.013.081.02.127.02A.554.554 0 0 0 .59.01a.385.385 0 0 0 .084-.033.042.042 0 0 1 .021-.006c.011 0 .019.007.024.019l.001.003a.062.062 0 0 1-.032.08L.685.074a.52.52 0 0 1-.228.047.506.506 0 0 1-.173-.029.387.387 0 0 1-.227-.216.46.46 0 0 1-.018-.277.416.416 0 0 1 .184-.241.394.394 0 0 1 .303-.047.41.41 0 0 1 .163.084.33.33 0 0 1 .097.355.258.258 0 0 1-.046.083.205.205 0 0 1-.157.076ZM.381-.187a.057.057 0 0 0 .022-.004.056.056 0 0 0 .02-.011.098.098 0 0 0 .017-.022.12.12 0 0 0 .013-.034l.03-.115a.017.017 0 0 0-.004-.015.019.019 0 0 0-.015-.008c0 .001 0 .001 0 0a.1.1 0 0 0-.048.012.126.126 0 0 0-.04.033.164.164 0 0 0-.038.105c0 .02.004.035.011.044.008.01.018.015.032.015Z" fill="#69D950" fill-rule="nonzero" transform="matrix(89.97734 -81.5283 33.18702 221.04059 3046.975 720.812)"/>
      <path d="M1100.16 3484.77c11.43-17.13 29.53-29.49 42.86-35.39a4.987 4.987 0 0 0 2.55-6.59 4.987 4.987 0 0 0-6.59-2.55c-14.67 6.48-34.57 20.13-47.14 38.99a4.997 4.997 0 0 0 1.39 6.93c2.29 1.53 5.4.91 6.93-1.39Z" fill="#fff" transform="matrix(.35381 0 0 .86918 2659.138 -2456.22)"/>
      <path d="M1113.86 3454.38c-4.45-1.78-15.96-11.62-19.52-17.84a4.997 4.997 0 0 0-6.82-1.86 4.997 4.997 0 0 0-1.86 6.82c4.44 7.78 18.93 19.94 24.48 22.16a4.997 4.997 0 0 0 6.5-2.78 4.997 4.997 0 0 0-2.78-6.5Z" fill="#fff" transform="matrix(.35381 0 0 .86918 2662.673 -2311.955)"/>
      <circle cx="1187.5" cy="3495.5" r="4.5" fill="#fff" transform="matrix(.35381 0 0 .86918 2646.502 -2504.188)"/>
      <circle cx="1187.5" cy="3495.5" r="4.5" fill="#fff" transform="matrix(.35381 0 0 .86918 2625.581 -2369.644)"/>
      <circle cx="1187.5" cy="3495.5" r="4.5" fill="#fff" transform="matrix(.35381 0 0 .86918 2662.596 -2462.944)"/>
      <g>
        <path d="m1385.05 3279.93-127 178.94 5 92.06 122-271Z" fill="#6559D4" transform="matrix(.18823 0 0 .4624 2852.61 -877.214)"/>
        <path d="m1379.73 3345.62-253 166 265 27-12-193Z" fill="#665BD4" transform="matrix(.18823 0 0 .4624 2853.615 -907.591)"/>
        <path d="m1462 3363-152 176 30 95 12.5-90 109.5-181Z" fill="#564AD0" transform="matrix(.18823 0 0 .4624 2838.13 -915.628)"/>
      </g>
      <g>
        <path d="m1385.05 3279.93-127 178.94 5 92.06 122-271Z" fill="#5B4ED1" transform="matrix(.24914 0 0 .61203 2817.614 -1504.758)"/>
        <path d="m1379.73 3345.62-253 166 265 27-12-193Z" fill="#7065D7" transform="matrix(.24914 0 0 .61203 2818.937 -1544.96)"/>
        <path d="m1462 3363-152 176 30 95 12.5-90 109.5-181Z" fill="#4A3CCC" transform="matrix(.24914 0 0 .61203 2798.443 -1555.598)"/>
      </g>
    </g>
  </g>
</svg>
