<svg viewBox="0 0 50 48" xmlns="http://www.w3.org/2000/svg" xml:space="preserve" fill-rule="evenodd" clip-rule="evenodd" stroke-linejoin="round" stroke-miterlimit="2">
  <g transform="matrix(1.26751 0 0 .5459 -3303.226 -383.83)">
    <g id="fb_icon">
      <path d="M777 3526.82c0-19.23-14.782-34.82-33.017-34.82h-51.742c-16.449 0-30.389 12.77-32.692 29.95l-8.226 61.35c-1.339 9.99 1.493 20.1 7.764 27.71 6.271 7.62 15.364 11.99 24.928 11.99h59.968c8.757 0 17.155-3.67 23.347-10.2 6.191-6.53 9.67-15.39 9.67-24.62v-61.36Z" fill="#7065D7" transform="matrix(.2823 0 0 .62145 2425.54 -1461.952)"/>
      <path d="M543.54 3704a9.021 9.021 0 0 1-6.362-2.63 9.012 9.012 0 0 1-2.636-6.37v-72h-10.143a6.396 6.396 0 0 1-6.399-6.4v-5.34c0-8.98 7.277-16.26 16.255-16.26h.287v-24.37c0-16.37 13.265-29.63 29.628-29.63h14.575c8.978 0 16.255 7.28 16.255 16.26v8.34c0 2.43-1.971 4.4-4.402 4.4h-14.462a7.14 7.14 0 0 0-7.136 7.14V3595h7.911a16.257 16.257 0 0 1 16.162 17.99c-.164 1.52-.32 2.98-.46 4.29a6.404 6.404 0 0 1-6.363 5.72H569v72c0 2.39-.948 4.68-2.635 6.37a9.025 9.025 0 0 1-6.362 2.63H543.54Z" fill="#DEDBF6" transform="matrix(.17982 0 0 .41751 2528.75 -760.634)"/>
      <circle cx="569.997" cy="3580" r="15.997" fill="#7065D7" transform="matrix(.14206 0 0 .32985 2527.62 -467.43)"/>
      <circle cx="569.997" cy="3580" r="15.997" fill="#7065D7" transform="matrix(.06455 0 0 .1433 2575.11 192.822)"/>
    </g>
  </g>
</svg>
