<?xml version="1.0" encoding="UTF-8" standalone="no"?>
<!DOCTYPE svg PUBLIC "-//W3C//DTD SVG 1.1//EN" "http://www.w3.org/Graphics/SVG/1.1/DTD/svg11.dtd">
<svg width="100%" height="100%" viewBox="0 0 365 240" version="1.1" xmlns="http://www.w3.org/2000/svg" xmlns:xlink="http://www.w3.org/1999/xlink" xml:space="preserve" xmlns:serif="http://www.serif.com/" style="fill-rule:evenodd;clip-rule:evenodd;stroke-linejoin:round;stroke-miterlimit:2;">
    <g id="logo">
        <path d="M15.549,61.236C10.482,75.283 -3.383,109.053 9.514,146.657C15.654,164.559 36.662,182.111 53.887,190.412C90.513,208.063 143.391,214.504 182.284,215.208C182.284,215.208 189.608,215.003 189.43,220.171C189.251,225.401 182.303,226.575 176.931,228.268C156.09,234.834 92.039,241.797 38.657,238.407C86.424,238.1 91.413,236.211 115.147,233.041C132.852,230.676 150.449,227.426 167.631,222.778L167.865,222.715C166.972,222.68 166.079,222.643 165.186,222.605C130.128,221.03 85.584,213.398 53.606,198.963C31.902,189.165 10.396,173.175 3.943,148.923C-2.422,125.008 -2.555,97.645 15.549,61.236Z" style="fill:rgb(153,0,101);"/>
        <path d="M166.56,224.108C165.918,219.168 179.447,212.801 200.322,209.833C273.232,199.467 364.901,188.167 364.901,188.167C364.901,188.167 261.96,212.079 203.477,225.38C182.445,230.163 167.194,228.993 166.56,224.108ZM176.468,222.247C176.094,220.142 184.162,216.947 194.472,215.117C204.783,213.287 213.457,213.51 213.831,215.615C214.204,217.72 206.137,220.914 195.826,222.744C185.516,224.575 176.842,224.352 176.468,222.247Z" style="fill:rgb(153,0,101);"/>
        <g>
            <g transform="matrix(1,0,0,1,48.022,53.994)">
                <path d="M14.056,-50.491C14.942,-50.771 15.944,-50.91 17.063,-50.91C18.649,-50.91 19.767,-50.677 20.42,-50.211C20.793,-49.931 21.283,-49.675 21.889,-49.442C22.262,-49.349 22.728,-48.894 23.287,-48.078C23.847,-47.262 24.127,-46.645 24.127,-46.225C24.127,-45.852 23.975,-45.491 23.672,-45.141C23.369,-44.791 23.054,-44.617 22.728,-44.617C21.889,-44.617 21.026,-45.06 20.14,-45.945C18.788,-47.297 17.436,-47.973 16.084,-47.973C15.758,-47.973 15.408,-47.88 15.035,-47.694C14.616,-47.461 14.254,-46.75 13.951,-45.561C13.648,-44.372 13.497,-43.078 13.497,-41.679C13.497,-40.654 13.59,-39.791 13.777,-39.092C13.823,-38.952 14.126,-37.553 14.686,-34.896C15.105,-32.798 15.921,-30.747 17.133,-28.742C18.765,-25.945 20.42,-23.917 22.099,-22.658C23.031,-21.959 23.94,-21.003 24.826,-19.791C26.178,-17.973 27.134,-16.189 27.693,-14.441C28.253,-12.693 28.532,-10.606 28.532,-8.182C28.532,-6.364 28.381,-4.977 28.078,-4.021C27.775,-3.065 27.087,-1.678 26.015,0.14C25.082,1.632 24.173,2.774 23.287,3.567C22.402,4.359 21.05,5.198 19.231,6.084C18.345,6.55 17.658,6.83 17.168,6.923C16.679,7.017 15.781,7.063 14.476,7.063C12.704,7.063 11.026,6.76 9.441,6.154C7.11,5.222 5.501,3.59 4.616,1.259C4.149,-0.047 3.916,-0.956 3.916,-1.469C3.916,-2.308 4.336,-2.727 5.175,-2.727L5.525,-2.727C6.037,-2.681 6.55,-2.098 7.063,-0.979C7.762,0.28 8.415,1.189 9.021,1.748C9.581,2.261 10.035,2.576 10.385,2.692C10.735,2.809 11.585,2.891 12.937,2.937C13.124,2.937 13.38,2.949 13.707,2.972C14.033,2.995 14.266,3.007 14.406,3.007C15.338,3.007 16.201,2.797 16.993,2.378C18.672,1.399 19.604,-0.979 19.791,-4.755L19.791,-5.804C19.791,-10.094 18.439,-13.683 15.735,-16.574C14.336,-18.206 13.31,-19.511 12.658,-20.49C12.285,-21.05 11.69,-21.9 10.874,-23.043C10.059,-24.185 9.464,-25.047 9.091,-25.63C8.718,-26.213 8.264,-27.029 7.727,-28.078C7.191,-29.127 6.737,-30.211 6.364,-31.33C5.898,-32.728 5.664,-34.5 5.664,-36.644C5.664,-40.001 6.177,-42.705 7.203,-44.756C8.648,-47.554 10.933,-49.465 14.056,-50.491Z" style="fill:rgb(253,0,106);fill-rule:nonzero;"/>
                <path d="M41.819,-32.448C46.481,-33.148 50.817,-33.497 54.827,-33.497L55.946,-33.497C56.831,-33.497 57.344,-33.311 57.484,-32.938C57.671,-32.518 57.554,-31.866 57.134,-30.98C56.901,-30.467 56.482,-29.348 55.876,-27.623C55.27,-25.898 54.85,-24.803 54.617,-24.336C54.151,-23.497 53.055,-21.201 51.33,-17.448C49.605,-13.695 48.743,-11.749 48.743,-11.609C48.743,-11.515 48.428,-10.723 47.799,-9.231C47.169,-7.739 46.761,-6.807 46.575,-6.434C46.481,-6.247 46.435,-6.107 46.435,-6.014C46.435,-5.548 47.414,-5.315 49.372,-5.315C52.822,-5.315 54.547,-4.919 54.547,-4.126C54.547,-3.846 54.337,-3.497 53.918,-3.077C53.498,-2.657 52.601,-2.366 51.225,-2.203C49.85,-2.04 46.924,-1.888 42.449,-1.748C41.423,-1.702 40.304,-1.678 39.092,-1.678C37.926,-1.678 37.157,-1.865 36.784,-2.238C36.411,-2.611 36.225,-3.077 36.225,-3.636C36.225,-4.196 36.411,-4.732 36.784,-5.245C37.857,-6.83 38.742,-8.695 39.442,-10.839C39.675,-11.632 40.281,-12.961 41.26,-14.826C42.239,-16.69 43.055,-18.066 43.708,-18.952C44.407,-19.931 46.062,-22.868 48.673,-27.763C48.999,-28.416 49.162,-28.835 49.162,-29.022C49.162,-29.395 48.813,-29.663 48.113,-29.826C47.414,-29.989 45.875,-30.187 43.498,-30.42C42.332,-30.514 41.54,-30.677 41.12,-30.91C40.7,-31.143 40.491,-31.493 40.491,-31.959C40.491,-32.192 40.934,-32.355 41.819,-32.448Z" style="fill:rgb(253,0,106);fill-rule:nonzero;"/>
                <path d="M66.505,-33.008C66.832,-33.288 67.321,-33.427 67.974,-33.427C68.86,-33.427 69.757,-33.194 70.666,-32.728C71.575,-32.262 72.123,-31.749 72.31,-31.19C72.543,-30.397 72.729,-29.138 72.869,-27.413C73.056,-25.455 73.195,-24.476 73.289,-24.476C73.475,-24.476 73.755,-24.756 74.128,-25.315C74.594,-25.968 75.538,-27.005 76.96,-28.427C78.382,-29.849 79.256,-30.654 79.583,-30.84C80.049,-31.073 80.632,-31.19 81.331,-31.19C81.89,-31.19 82.17,-31.096 82.17,-30.91C82.17,-30.49 83.056,-30.141 84.828,-29.861C85.62,-29.721 86.564,-29.302 87.66,-28.602C88.755,-27.903 89.49,-27.25 89.863,-26.644C90.375,-25.898 90.795,-25.059 91.121,-24.127C91.448,-23.147 91.727,-22.658 91.961,-22.658C92.194,-22.658 92.87,-23.171 93.989,-24.196C95.061,-25.176 96.005,-25.875 96.821,-26.294C97.637,-26.714 98.721,-27.04 100.073,-27.273C100.912,-27.413 101.495,-27.483 101.821,-27.483C102.241,-27.483 102.753,-27.32 103.359,-26.994C104.199,-26.528 104.805,-26.294 105.178,-26.294C106.623,-26.294 107.812,-25.49 108.744,-23.882C109.677,-22.273 110.213,-20.7 110.353,-19.161C110.632,-15.991 111.122,-12.891 111.821,-9.86C111.961,-9.301 112.031,-8.625 112.031,-7.832C112.031,-7.04 111.973,-6.189 111.856,-5.28C111.74,-4.371 111.588,-3.345 111.402,-2.203C111.215,-1.061 111.099,-0.326 111.052,0C110.819,1.725 110.376,3.054 109.723,3.986C108.465,5.758 106.973,6.644 105.248,6.644C104.362,6.644 103.639,6.364 103.08,5.804C102.287,4.919 101.891,3.963 101.891,2.937C101.891,2.657 101.984,2.284 102.171,1.818C102.637,0.932 103.056,-1.55 103.429,-5.63C103.802,-9.709 103.989,-13.66 103.989,-17.483C103.989,-19.534 103.826,-21.015 103.499,-21.924C103.173,-22.833 102.567,-23.52 101.681,-23.987C101.215,-24.266 100.842,-24.406 100.562,-24.406C100.422,-24.406 99.84,-24.22 98.814,-23.847C97.555,-23.381 96.063,-22.285 94.338,-20.56C92.287,-18.509 90.853,-16.574 90.037,-14.756C89.222,-12.937 88.697,-10.42 88.464,-7.203C88.184,-3.473 87.671,-1.608 86.925,-1.608C86.739,-1.608 86.413,-1.748 85.946,-2.028C85.294,-2.448 84.967,-3.287 84.967,-4.546C84.967,-4.965 85.037,-5.245 85.177,-5.385C85.41,-5.618 85.527,-8.392 85.527,-13.707C85.527,-15.572 85.48,-16.597 85.387,-16.784C85.247,-17.017 85.096,-17.716 84.932,-18.882C84.769,-20.047 84.641,-20.746 84.548,-20.98C84.361,-21.632 84.268,-22.262 84.268,-22.868C84.268,-23.66 83.988,-24.5 83.429,-25.385C82.869,-26.271 82.263,-26.854 81.611,-27.134C81.238,-27.32 80.911,-27.413 80.632,-27.413C80.352,-27.413 79.956,-27.227 79.443,-26.854C78.65,-26.341 77.706,-25.257 76.611,-23.602C75.515,-21.947 74.711,-20.374 74.198,-18.882C73.592,-17.157 73.289,-15.268 73.289,-13.217C73.289,-11.259 73.382,-9.208 73.568,-7.063C73.941,-3.567 74.128,-1.049 74.128,0.49C74.128,2.867 73.662,4.639 72.729,5.804C72.263,6.364 71.634,6.644 70.841,6.644C70.002,6.644 69.279,6.247 68.673,5.455C68.067,4.662 67.671,3.567 67.484,2.168C67.345,1.469 67.275,0.886 67.275,0.42C67.275,0.28 67.286,0.152 67.31,0.035C67.333,-0.082 67.345,-0.186 67.345,-0.28C67.345,-0.513 67.251,-1.422 67.065,-3.007C66.319,-7.483 65.829,-11.492 65.596,-15.035C65.223,-21.236 65.037,-24.966 65.037,-26.225C65.037,-30.001 65.526,-32.262 66.505,-33.008Z" style="fill:rgb(253,0,106);fill-rule:nonzero;"/>
                <path d="M139.095,-29.931C138.675,-30.164 137.999,-30.281 137.067,-30.281C134.549,-30.281 132.311,-29.698 130.353,-28.532C127.976,-27.134 126.787,-23.73 126.787,-18.322C126.787,-16.504 127.055,-15.094 127.591,-14.091C128.127,-13.089 129.094,-12.191 130.493,-11.399C131.379,-10.886 132.801,-10.63 134.759,-10.63C139.141,-10.63 142.125,-11.888 143.71,-14.406C143.943,-14.732 144.06,-15.129 144.06,-15.595C144.06,-16.108 143.967,-16.854 143.78,-17.833C143.361,-20.77 143.081,-22.775 142.941,-23.847C142.708,-26.178 142.475,-27.413 142.242,-27.553C142.055,-27.646 141.554,-28.031 140.738,-28.707C139.922,-29.383 139.374,-29.791 139.095,-29.931ZM143.64,-33.008C144.107,-33.94 144.806,-34.64 145.738,-35.106C146.671,-35.572 147.277,-35.805 147.557,-35.805C147.929,-35.805 148.757,-35.374 150.039,-34.511C151.321,-33.649 152.102,-32.985 152.382,-32.518C152.801,-31.912 153.011,-30.001 153.011,-26.784C153.011,-21.609 152.615,-17.18 151.822,-13.497C151.403,-11.585 151.193,-9.884 151.193,-8.392C151.193,-7.226 151.088,-6.41 150.878,-5.944C150.668,-5.478 150.284,-5.245 149.724,-5.245C149.351,-5.245 149.002,-5.42 148.675,-5.769C148.349,-6.119 148.186,-6.457 148.186,-6.783C148.186,-7.156 147.976,-7.506 147.557,-7.832C147.137,-8.252 146.764,-8.788 146.438,-9.441L145.948,-10.42L144.969,-9.581C144.316,-9.021 143.687,-8.345 143.081,-7.553C142.615,-6.9 141.706,-6.224 140.354,-5.525C139.002,-4.825 137.649,-4.336 136.297,-4.056C135.132,-3.823 133.71,-3.706 132.032,-3.706C129.934,-3.706 128.232,-3.87 126.927,-4.196C121.985,-5.501 119.514,-9.371 119.514,-15.805C119.514,-15.991 119.525,-16.248 119.549,-16.574C119.572,-16.9 119.584,-17.133 119.584,-17.273C119.863,-22.075 121.215,-25.758 123.64,-28.322C124.106,-28.789 124.829,-29.383 125.808,-30.106C126.787,-30.828 127.393,-31.19 127.626,-31.19C127.812,-31.19 128.279,-31.399 129.025,-31.819C129.77,-32.239 130.959,-32.588 132.591,-32.868C134.223,-33.148 135.691,-33.288 136.997,-33.288C138.022,-33.288 138.652,-33.194 138.885,-33.008C139.258,-32.728 139.911,-32.39 140.843,-31.994C141.775,-31.598 142.382,-31.399 142.661,-31.399L142.731,-31.399C142.964,-31.633 143.267,-32.169 143.64,-33.008Z" style="fill:rgb(253,0,106);fill-rule:nonzero;"/>
                <path d="M174.62,-49.931C175.366,-50.444 176.019,-50.701 176.578,-50.701C176.951,-50.701 177.371,-50.584 177.837,-50.351C178.443,-50.025 178.851,-49.663 179.061,-49.267C179.271,-48.871 179.376,-48.09 179.376,-46.924C179.376,-46.551 179.329,-45.526 179.236,-43.847C179.096,-41.376 178.956,-39.302 178.816,-37.623C178.723,-37.017 178.711,-36.621 178.781,-36.435C178.851,-36.248 179.073,-36.085 179.446,-35.945C179.725,-35.852 180.028,-35.805 180.355,-35.805C180.914,-35.805 181.613,-35.875 182.453,-36.015C184.411,-36.248 185.856,-36.365 186.788,-36.365C188.28,-36.365 189.492,-36.132 190.425,-35.665C191.451,-35.106 191.963,-34.616 191.963,-34.197C191.963,-33.497 191.008,-33.148 189.096,-33.148C188.49,-33.148 188.024,-33.171 187.697,-33.218C187.418,-33.264 186.882,-33.288 186.089,-33.288C181.66,-33.288 179.212,-33.055 178.746,-32.588C178.653,-32.495 178.606,-31.236 178.606,-28.812C178.606,-24.523 178.7,-21.353 178.886,-19.301C179.166,-16.504 179.399,-13.24 179.585,-9.511C179.865,-4.196 180.075,-1.235 180.215,-0.629C180.355,0.163 180.425,1.189 180.425,2.448C180.425,4.919 180.238,6.574 179.865,7.413C179.259,8.858 178.443,9.581 177.417,9.581C176.672,9.581 175.856,9.208 174.97,8.462C174.224,7.809 173.723,7.11 173.466,6.364C173.21,5.618 172.988,4.079 172.802,1.748C172.522,-0.862 172.312,-2.564 172.173,-3.357C172.033,-4.149 171.87,-9.278 171.683,-18.742L171.473,-32.938L167.907,-32.938C165.716,-32.938 164.107,-32.845 163.081,-32.658C162.149,-32.472 161.496,-32.588 161.123,-33.008C160.61,-33.567 160.517,-34.15 160.844,-34.756C161.217,-35.409 163.361,-35.759 167.277,-35.805L171.403,-35.875L171.613,-36.784C171.706,-37.064 171.893,-38.696 172.173,-41.679C172.546,-46.342 173.361,-49.092 174.62,-49.931Z" style="fill:rgb(253,0,106);fill-rule:nonzero;"/>
                <path d="M202.803,-53.568C202.943,-53.615 203.152,-53.638 203.432,-53.638C203.805,-53.638 204.831,-53.428 206.509,-53.008C207.628,-52.682 208.234,-52.286 208.327,-51.82L208.327,-50.631C208.327,-50.025 208.467,-49.232 208.747,-48.253C209.306,-46.015 209.679,-40.63 209.866,-32.099C209.959,-26.784 210.076,-24.057 210.216,-23.917L210.286,-23.917C210.472,-23.917 210.81,-24.173 211.3,-24.686C211.789,-25.199 212.15,-25.688 212.383,-26.155C212.617,-26.667 214.132,-28.322 216.929,-31.12C218.701,-32.845 219.878,-33.94 220.461,-34.407C221.043,-34.873 221.545,-35.106 221.964,-35.106L222.174,-35.106C223.2,-35.013 223.712,-34.616 223.712,-33.917C223.712,-32.985 222.967,-31.982 221.475,-30.91C220.635,-30.257 219.528,-29.243 218.153,-27.868C216.778,-26.493 215.647,-25.269 214.761,-24.196C214.621,-24.01 214.423,-23.754 214.167,-23.427C213.91,-23.101 213.689,-22.821 213.502,-22.588C213.316,-22.355 213.176,-22.192 213.083,-22.099C212.71,-21.586 212.523,-21.259 212.523,-21.119C212.523,-20.933 212.756,-20.677 213.223,-20.35C213.736,-20.024 214.353,-19.301 215.076,-18.182C215.798,-17.063 216.23,-16.411 216.37,-16.224C217.069,-15.245 217.931,-13.951 218.957,-12.343C219.983,-10.735 220.775,-9.511 221.335,-8.672C222.92,-6.294 223.922,-4.685 224.342,-3.846C225.554,-1.608 226.65,0 227.629,0.979C228.328,1.678 228.678,2.448 228.678,3.287C228.678,3.706 228.584,4.079 228.398,4.406C228.072,5.012 227.629,5.315 227.069,5.315C226.37,5.315 225.717,4.802 225.111,3.776C224.552,2.797 224.109,2.191 223.782,1.958C223.363,1.632 223.153,1.329 223.153,1.049C223.153,0.816 222.897,0.396 222.384,-0.21C221.964,-0.769 221.218,-2.075 220.146,-4.126C219.214,-5.944 218.258,-7.623 217.279,-9.161C216.859,-9.814 216.335,-10.665 215.705,-11.714C215.076,-12.763 214.505,-13.637 213.992,-14.336C213.153,-15.455 212.5,-16.294 212.034,-16.854C211.241,-17.879 210.728,-18.392 210.495,-18.392C210.216,-18.392 210.076,-17.763 210.076,-16.504C210.076,-15.385 210.099,-14.406 210.146,-13.567C210.379,-8.112 210.495,-4.219 210.495,-1.888C210.495,1.562 210.309,4.044 209.936,5.56C209.563,7.075 208.887,8.089 207.908,8.602C207.442,8.928 206.952,9.091 206.439,9.091C205.227,9.091 204.178,8.112 203.292,6.154C202.779,5.035 202.418,3.613 202.208,1.888C201.999,0.163 201.8,-2.867 201.614,-7.203C201.567,-8.369 201.124,-15.665 200.285,-29.092C200.099,-31.889 200.006,-33.404 200.006,-33.637C200.006,-35.083 199.936,-37.857 199.796,-41.959C199.702,-45.502 199.656,-47.391 199.656,-47.624C199.656,-49.116 199.796,-50.211 200.075,-50.91C200.542,-52.216 201.451,-53.102 202.803,-53.568Z" style="fill:rgb(253,0,106);fill-rule:nonzero;"/>
                <path d="M241.545,-31.26C241.638,-31.446 241.871,-31.539 242.244,-31.539C242.757,-31.539 243.247,-31.376 243.713,-31.05C244.412,-30.584 245.042,-29.43 245.601,-27.588C246.161,-25.747 246.44,-24.033 246.44,-22.448L246.44,-21.609C246.347,-20.35 246.184,-17.471 245.951,-12.972C245.718,-8.473 245.601,-5.851 245.601,-5.105C245.601,-3.567 245.508,-1.795 245.321,0.21C245.088,2.448 244.82,3.928 244.517,4.65C244.214,5.373 243.69,5.734 242.944,5.734C242.105,5.734 241.161,5.163 240.112,4.021C239.063,2.879 238.282,1.608 237.769,0.21C236.883,-2.448 236.44,-8.065 236.44,-16.644C236.44,-20.001 236.557,-22.308 236.79,-23.567C237.256,-26.364 237.676,-28.183 238.049,-29.022C238.421,-29.861 239.074,-30.397 240.007,-30.63C240.939,-30.91 241.452,-31.12 241.545,-31.26ZM240.916,-45.456C241.289,-45.689 241.568,-45.805 241.755,-45.805C242.081,-45.805 242.734,-45.526 243.713,-44.966C244.925,-44.36 245.764,-43.742 246.231,-43.113C246.697,-42.484 246.93,-41.679 246.93,-40.7L246.93,-40.211C246.837,-39.325 246.172,-38.416 244.937,-37.484C243.701,-36.551 242.524,-36.085 241.405,-36.085C240.426,-36.085 239.529,-36.586 238.713,-37.588C237.897,-38.591 237.489,-39.721 237.489,-40.98C237.489,-41.633 237.629,-42.262 237.909,-42.868C238.235,-43.568 239.237,-44.43 240.916,-45.456Z" style="fill:rgb(253,0,106);fill-rule:nonzero;"/>
            </g>
            <g transform="matrix(1,0,0,1,42.736,109.564)">
                <path d="M5.14,-40.176C5.245,-40.211 5.402,-40.228 5.612,-40.228C5.892,-40.228 6.661,-40.071 7.92,-39.756C8.759,-39.512 9.214,-39.214 9.283,-38.865L9.283,-37.973C9.283,-37.519 9.388,-36.924 9.598,-36.19C10.018,-34.511 10.297,-30.473 10.437,-24.074C10.507,-20.088 10.595,-18.042 10.7,-17.938L10.752,-17.938C10.892,-17.938 11.145,-18.13 11.513,-18.514C11.88,-18.899 12.151,-19.266 12.326,-19.616C12.5,-20.001 13.637,-21.242 15.735,-23.34C17.063,-24.634 17.946,-25.455 18.383,-25.805C18.82,-26.155 19.196,-26.329 19.511,-26.329L19.668,-26.329C20.438,-26.259 20.822,-25.962 20.822,-25.438C20.822,-24.738 20.263,-23.987 19.144,-23.182C18.514,-22.693 17.684,-21.932 16.653,-20.901C15.621,-19.869 14.773,-18.952 14.109,-18.147C14.004,-18.007 13.855,-17.815 13.663,-17.57C13.471,-17.326 13.305,-17.116 13.165,-16.941C13.025,-16.766 12.92,-16.644 12.85,-16.574C12.57,-16.189 12.43,-15.944 12.43,-15.84C12.43,-15.7 12.605,-15.507 12.955,-15.263C13.34,-15.018 13.803,-14.476 14.345,-13.637C14.887,-12.798 15.21,-12.308 15.315,-12.168C15.84,-11.434 16.486,-10.464 17.256,-9.257C18.025,-8.051 18.619,-7.133 19.039,-6.504C20.228,-4.72 20.98,-3.514 21.294,-2.885C22.203,-1.206 23.025,0 23.759,0.734C24.284,1.259 24.546,1.836 24.546,2.465C24.546,2.78 24.476,3.06 24.336,3.304C24.092,3.759 23.759,3.986 23.34,3.986C22.815,3.986 22.326,3.601 21.871,2.832C21.452,2.098 21.119,1.643 20.875,1.469C20.56,1.224 20.403,0.997 20.403,0.787C20.403,0.612 20.21,0.297 19.826,-0.157C19.511,-0.577 18.952,-1.556 18.147,-3.094C17.448,-4.458 16.731,-5.717 15.997,-6.871C15.682,-7.36 15.289,-7.998 14.817,-8.785C14.345,-9.572 13.916,-10.228 13.532,-10.752C12.902,-11.591 12.413,-12.221 12.063,-12.64C11.469,-13.409 11.084,-13.794 10.909,-13.794C10.7,-13.794 10.595,-13.322 10.595,-12.378C10.595,-11.539 10.612,-10.804 10.647,-10.175C10.822,-6.084 10.909,-3.164 10.909,-1.416C10.909,1.171 10.77,3.033 10.49,4.17C10.21,5.306 9.703,6.067 8.969,6.451C8.619,6.696 8.252,6.818 7.867,6.818C6.958,6.818 6.171,6.084 5.507,4.616C5.123,3.776 4.852,2.71 4.694,1.416C4.537,0.122 4.388,-2.15 4.248,-5.402C4.213,-6.276 3.881,-11.749 3.252,-21.819C3.112,-23.917 3.042,-25.053 3.042,-25.228C3.042,-26.312 2.99,-28.392 2.885,-31.469C2.815,-34.127 2.78,-35.543 2.78,-35.718C2.78,-36.837 2.885,-37.658 3.094,-38.183C3.444,-39.162 4.126,-39.826 5.14,-40.176Z" style="fill:rgb(253,0,106);fill-rule:nonzero;"/>
                <path d="M30.42,-26.434L30.683,-27.221L32.413,-27.116C34.127,-27.011 35.246,-26.399 35.77,-25.28C35.945,-24.896 36.242,-23.943 36.662,-22.422C37.081,-20.901 37.291,-20.001 37.291,-19.721C37.291,-19.651 37.317,-19.511 37.37,-19.301C37.422,-19.091 37.484,-18.785 37.553,-18.383C37.623,-17.981 37.693,-17.64 37.763,-17.361C38.288,-15.088 38.9,-12.238 39.599,-8.811C39.809,-7.832 39.966,-7.343 40.071,-7.343C40.246,-7.343 41.05,-8.191 42.484,-9.887C43.917,-11.582 44.791,-12.745 45.106,-13.374C45.526,-14.214 45.902,-14.773 46.234,-15.053C46.566,-15.333 47.082,-15.525 47.781,-15.63C48.34,-15.7 48.743,-15.735 48.987,-15.735C49.966,-15.735 50.788,-15.472 51.452,-14.948C52.117,-14.423 52.886,-13.444 53.76,-12.011C54.495,-10.787 54.967,-10.158 55.176,-10.123L55.229,-10.123C55.439,-10.123 55.71,-10.481 56.042,-11.198C56.374,-11.915 56.724,-12.754 57.091,-13.715C57.458,-14.677 57.729,-15.315 57.904,-15.63C58.044,-15.875 58.236,-16.486 58.481,-17.466C58.516,-17.675 58.638,-18.139 58.848,-18.855C59.058,-19.572 59.206,-20.132 59.294,-20.534C59.381,-20.936 59.477,-21.469 59.582,-22.133C59.687,-22.798 59.739,-23.41 59.739,-23.969C59.774,-24.948 59.818,-25.586 59.871,-25.884C59.923,-26.181 60.072,-26.417 60.316,-26.592C60.701,-26.871 61.033,-27.011 61.313,-27.011C61.977,-27.011 62.309,-26.522 62.309,-25.543C62.309,-25.403 62.274,-25.123 62.205,-24.703C62.17,-24.599 62.108,-24.31 62.021,-23.838C61.934,-23.366 61.837,-22.85 61.732,-22.291C61.628,-21.731 61.54,-21.224 61.47,-20.77C61.156,-18.917 60.404,-16.417 59.215,-13.27C58.096,-10.123 57.537,-8.252 57.537,-7.658C57.537,-7.098 57.379,-6.617 57.065,-6.215C56.75,-5.813 56.365,-5.612 55.911,-5.612C55.176,-5.647 54.416,-5.909 53.629,-6.399C52.842,-6.888 51.75,-7.797 50.351,-9.126C48.673,-10.77 47.571,-11.591 47.047,-11.591C46.732,-11.591 46.435,-11.364 46.155,-10.909C45.77,-10.385 44.949,-9.362 43.69,-7.841C42.431,-6.32 41.522,-5.262 40.963,-4.668C40.263,-3.934 39.616,-3.567 39.022,-3.567C38.463,-3.567 37.886,-3.846 37.291,-4.406C36.732,-4.93 36.242,-5.874 35.823,-7.238C35.403,-8.497 35.053,-9.406 34.774,-9.965C34.529,-10.455 33.882,-12.5 32.833,-16.102C31.714,-19.983 31.137,-21.976 31.102,-22.081C30.613,-23.654 30.368,-24.878 30.368,-25.752C30.368,-26.102 30.385,-26.329 30.42,-26.434Z" style="fill:rgb(253,0,106);fill-rule:nonzero;"/>
                <path d="M71.75,-23.445C71.82,-23.585 71.995,-23.654 72.275,-23.654C72.659,-23.654 73.026,-23.532 73.376,-23.287C73.901,-22.938 74.373,-22.072 74.792,-20.691C75.212,-19.31 75.422,-18.025 75.422,-16.836L75.422,-16.207C75.352,-15.263 75.229,-13.104 75.055,-9.729C74.88,-6.355 74.792,-4.388 74.792,-3.829C74.792,-2.675 74.722,-1.346 74.582,0.157C74.408,1.836 74.207,2.946 73.979,3.488C73.752,4.03 73.359,4.301 72.799,4.301C72.17,4.301 71.462,3.872 70.675,3.016C69.888,2.159 69.303,1.206 68.918,0.157C68.254,-1.836 67.921,-6.049 67.921,-12.483C67.921,-15 68.009,-16.731 68.184,-17.675C68.533,-19.773 68.848,-21.137 69.128,-21.766C69.408,-22.396 69.897,-22.798 70.596,-22.973C71.296,-23.182 71.68,-23.34 71.75,-23.445ZM71.278,-34.092C71.558,-34.267 71.768,-34.354 71.908,-34.354C72.152,-34.354 72.642,-34.144 73.376,-33.725C74.285,-33.27 74.915,-32.807 75.264,-32.335C75.614,-31.863 75.789,-31.26 75.789,-30.525L75.789,-30.158C75.719,-29.494 75.221,-28.812 74.294,-28.113C73.367,-27.413 72.485,-27.064 71.645,-27.064C70.911,-27.064 70.238,-27.44 69.626,-28.191C69.014,-28.943 68.708,-29.791 68.708,-30.735C68.708,-31.225 68.813,-31.697 69.023,-32.151C69.268,-32.676 70.019,-33.323 71.278,-34.092Z" style="fill:rgb(253,0,106);fill-rule:nonzero;"/>
                <path d="M96.087,-22.448C95.772,-22.623 95.265,-22.71 94.566,-22.71C92.677,-22.71 90.999,-22.273 89.53,-21.399C87.747,-20.35 86.856,-17.798 86.856,-13.742C86.856,-12.378 87.057,-11.32 87.459,-10.568C87.861,-9.817 88.586,-9.144 89.635,-8.549C90.3,-8.165 91.366,-7.972 92.835,-7.972C96.122,-7.972 98.359,-8.916 99.548,-10.804C99.723,-11.049 99.81,-11.346 99.81,-11.696C99.81,-12.081 99.741,-12.64 99.601,-13.374C99.286,-15.577 99.076,-17.081 98.971,-17.885C98.796,-19.633 98.622,-20.56 98.447,-20.665C98.307,-20.735 97.931,-21.023 97.319,-21.53C96.707,-22.037 96.296,-22.343 96.087,-22.448ZM99.496,-24.756C99.845,-25.455 100.37,-25.98 101.069,-26.329C101.769,-26.679 102.223,-26.854 102.433,-26.854C102.713,-26.854 103.333,-26.53 104.295,-25.884C105.256,-25.237 105.842,-24.738 106.052,-24.389C106.367,-23.934 106.524,-22.501 106.524,-20.088C106.524,-16.207 106.227,-12.885 105.632,-10.123C105.318,-8.689 105.16,-7.413 105.16,-6.294C105.16,-5.42 105.082,-4.808 104.924,-4.458C104.767,-4.109 104.478,-3.934 104.059,-3.934C103.779,-3.934 103.517,-4.065 103.272,-4.327C103.027,-4.589 102.905,-4.843 102.905,-5.088C102.905,-5.367 102.748,-5.63 102.433,-5.874C102.118,-6.189 101.838,-6.591 101.594,-7.081L101.227,-7.815L100.492,-7.186C100.003,-6.766 99.531,-6.259 99.076,-5.664C98.727,-5.175 98.045,-4.668 97.031,-4.143C96.017,-3.619 95.003,-3.252 93.989,-3.042C93.114,-2.867 92.048,-2.78 90.789,-2.78C89.216,-2.78 87.939,-2.902 86.96,-3.147C83.254,-4.126 81.401,-7.028 81.401,-11.853C81.401,-11.993 81.41,-12.186 81.427,-12.43C81.445,-12.675 81.453,-12.85 81.453,-12.955C81.663,-16.556 82.677,-19.319 84.495,-21.242C84.845,-21.592 85.387,-22.037 86.121,-22.579C86.856,-23.121 87.31,-23.392 87.485,-23.392C87.625,-23.392 87.974,-23.55 88.534,-23.864C89.093,-24.179 89.985,-24.441 91.209,-24.651C92.433,-24.861 93.534,-24.966 94.513,-24.966C95.282,-24.966 95.754,-24.896 95.929,-24.756C96.209,-24.546 96.698,-24.293 97.398,-23.995C98.097,-23.698 98.552,-23.55 98.761,-23.55L98.814,-23.55C98.989,-23.724 99.216,-24.127 99.496,-24.756Z" style="fill:rgb(253,0,106);fill-rule:nonzero;"/>
                <path d="M122.731,-37.449C123.29,-37.833 123.78,-38.026 124.199,-38.026C124.479,-38.026 124.794,-37.938 125.143,-37.763C125.598,-37.519 125.904,-37.248 126.061,-36.95C126.219,-36.653 126.297,-36.067 126.297,-35.193C126.297,-34.914 126.262,-34.144 126.192,-32.886C126.087,-31.032 125.982,-29.476 125.878,-28.218C125.808,-27.763 125.799,-27.466 125.851,-27.326C125.904,-27.186 126.07,-27.064 126.35,-26.959C126.559,-26.889 126.787,-26.854 127.031,-26.854C127.451,-26.854 127.976,-26.906 128.605,-27.011C130.074,-27.186 131.157,-27.273 131.857,-27.273C132.976,-27.273 133.885,-27.099 134.584,-26.749C135.353,-26.329 135.738,-25.962 135.738,-25.648C135.738,-25.123 135.021,-24.861 133.588,-24.861C133.133,-24.861 132.783,-24.878 132.539,-24.913C132.329,-24.948 131.927,-24.966 131.332,-24.966C128.011,-24.966 126.175,-24.791 125.825,-24.441C125.755,-24.371 125.72,-23.427 125.72,-21.609C125.72,-18.392 125.79,-16.014 125.93,-14.476C126.14,-12.378 126.315,-9.93 126.455,-7.133C126.664,-3.147 126.822,-0.927 126.927,-0.472C127.031,0.122 127.084,0.892 127.084,1.836C127.084,3.689 126.944,4.93 126.664,5.56C126.21,6.644 125.598,7.186 124.829,7.186C124.269,7.186 123.657,6.906 122.993,6.346C122.433,5.857 122.058,5.332 121.865,4.773C121.673,4.213 121.507,3.06 121.367,1.311C121.157,-0.647 121,-1.923 120.895,-2.518C120.79,-3.112 120.668,-6.958 120.528,-14.056L120.37,-24.703L117.696,-24.703C116.052,-24.703 114.846,-24.634 114.077,-24.494C113.377,-24.354 112.888,-24.441 112.608,-24.756C112.223,-25.176 112.153,-25.613 112.398,-26.067C112.678,-26.557 114.286,-26.819 117.224,-26.854L120.318,-26.906L120.475,-27.588C120.545,-27.798 120.685,-29.022 120.895,-31.26C121.175,-34.756 121.787,-36.819 122.731,-37.449Z" style="fill:rgb(253,0,106);fill-rule:nonzero;"/>
                <path d="M143.868,-40.176C143.973,-40.211 144.13,-40.228 144.34,-40.228C144.619,-40.228 145.389,-40.071 146.647,-39.756C147.487,-39.512 147.941,-39.214 148.011,-38.865L148.011,-37.973C148.011,-37.519 148.116,-36.924 148.326,-36.19C148.745,-34.511 149.025,-30.473 149.165,-24.074C149.235,-20.088 149.322,-18.042 149.427,-17.938L149.48,-17.938C149.62,-17.938 149.873,-18.13 150.24,-18.514C150.607,-18.899 150.878,-19.266 151.053,-19.616C151.228,-20.001 152.364,-21.242 154.462,-23.34C155.791,-24.634 156.674,-25.455 157.111,-25.805C157.548,-26.155 157.924,-26.329 158.239,-26.329L158.396,-26.329C159.165,-26.259 159.55,-25.962 159.55,-25.438C159.55,-24.738 158.99,-23.987 157.871,-23.182C157.242,-22.693 156.412,-21.932 155.38,-20.901C154.349,-19.869 153.501,-18.952 152.836,-18.147C152.731,-18.007 152.583,-17.815 152.391,-17.57C152.198,-17.326 152.032,-17.116 151.892,-16.941C151.752,-16.766 151.648,-16.644 151.578,-16.574C151.298,-16.189 151.158,-15.944 151.158,-15.84C151.158,-15.7 151.333,-15.507 151.683,-15.263C152.067,-15.018 152.53,-14.476 153.072,-13.637C153.614,-12.798 153.938,-12.308 154.043,-12.168C154.567,-11.434 155.214,-10.464 155.983,-9.257C156.753,-8.051 157.347,-7.133 157.767,-6.504C158.955,-4.72 159.707,-3.514 160.022,-2.885C160.931,-1.206 161.753,0 162.487,0.734C163.011,1.259 163.274,1.836 163.274,2.465C163.274,2.78 163.204,3.06 163.064,3.304C162.819,3.759 162.487,3.986 162.067,3.986C161.543,3.986 161.053,3.601 160.599,2.832C160.179,2.098 159.847,1.643 159.602,1.469C159.288,1.224 159.13,0.997 159.13,0.787C159.13,0.612 158.938,0.297 158.553,-0.157C158.239,-0.577 157.679,-1.556 156.875,-3.094C156.176,-4.458 155.459,-5.717 154.725,-6.871C154.41,-7.36 154.016,-7.998 153.544,-8.785C153.072,-9.572 152.644,-10.228 152.259,-10.752C151.63,-11.591 151.141,-12.221 150.791,-12.64C150.196,-13.409 149.812,-13.794 149.637,-13.794C149.427,-13.794 149.322,-13.322 149.322,-12.378C149.322,-11.539 149.34,-10.804 149.375,-10.175C149.55,-6.084 149.637,-3.164 149.637,-1.416C149.637,1.171 149.497,3.033 149.217,4.17C148.938,5.306 148.431,6.067 147.696,6.451C147.347,6.696 146.98,6.818 146.595,6.818C145.686,6.818 144.899,6.084 144.235,4.616C143.85,3.776 143.579,2.71 143.422,1.416C143.264,0.122 143.116,-2.15 142.976,-5.402C142.941,-6.276 142.609,-11.749 141.979,-21.819C141.84,-23.917 141.77,-25.053 141.77,-25.228C141.77,-26.312 141.717,-28.392 141.612,-31.469C141.542,-34.127 141.507,-35.543 141.507,-35.718C141.507,-36.837 141.612,-37.658 141.822,-38.183C142.172,-39.162 142.854,-39.826 143.868,-40.176Z" style="fill:rgb(253,0,106);fill-rule:nonzero;"/>
                <path d="M172.924,-23.445C172.994,-23.585 173.169,-23.654 173.449,-23.654C173.833,-23.654 174.201,-23.532 174.55,-23.287C175.075,-22.938 175.547,-22.072 175.966,-20.691C176.386,-19.31 176.596,-18.025 176.596,-16.836L176.596,-16.207C176.526,-15.263 176.403,-13.104 176.229,-9.729C176.054,-6.355 175.966,-4.388 175.966,-3.829C175.966,-2.675 175.896,-1.346 175.757,0.157C175.582,1.836 175.381,2.946 175.153,3.488C174.926,4.03 174.533,4.301 173.973,4.301C173.344,4.301 172.636,3.872 171.849,3.016C171.062,2.159 170.477,1.206 170.092,0.157C169.428,-1.836 169.096,-6.049 169.096,-12.483C169.096,-15 169.183,-16.731 169.358,-17.675C169.707,-19.773 170.022,-21.137 170.302,-21.766C170.582,-22.396 171.071,-22.798 171.77,-22.973C172.47,-23.182 172.854,-23.34 172.924,-23.445ZM172.452,-34.092C172.732,-34.267 172.942,-34.354 173.082,-34.354C173.326,-34.354 173.816,-34.144 174.55,-33.725C175.459,-33.27 176.089,-32.807 176.438,-32.335C176.788,-31.863 176.963,-31.26 176.963,-30.525L176.963,-30.158C176.893,-29.494 176.395,-28.812 175.468,-28.113C174.542,-27.413 173.659,-27.064 172.819,-27.064C172.085,-27.064 171.412,-27.44 170.8,-28.191C170.188,-28.943 169.882,-29.791 169.882,-30.735C169.882,-31.225 169.987,-31.697 170.197,-32.151C170.442,-32.676 171.194,-33.323 172.452,-34.092Z" style="fill:rgb(253,0,106);fill-rule:nonzero;"/>
            </g>
            <g transform="matrix(0.377564,0,0,0.377564,-60.2051,-15.1552)">
                <g transform="matrix(1,0,0,1,362.532,495.979)">
                    <path d="M23.523,-82.793C23.77,-83.287 24.387,-83.534 25.375,-83.534C26.733,-83.534 28.03,-83.102 29.265,-82.237C31.117,-81.002 32.784,-77.946 34.266,-73.069C35.747,-68.191 36.488,-63.654 36.488,-59.455L36.488,-57.233C36.241,-53.899 35.809,-46.274 35.192,-34.358C34.574,-22.442 34.266,-15.497 34.266,-13.521C34.266,-9.446 34.019,-4.754 33.525,0.556C32.907,6.483 32.197,10.403 31.395,12.317C30.592,14.231 29.203,15.188 27.227,15.188C25.005,15.188 22.504,13.675 19.726,10.65C16.948,7.625 14.879,4.26 13.521,0.556C11.175,-6.483 10.002,-21.362 10.002,-44.082C10.002,-52.973 10.311,-59.085 10.928,-62.419C12.163,-69.828 13.274,-74.643 14.262,-76.866C15.25,-79.089 16.978,-80.509 19.448,-81.126C21.918,-81.867 23.276,-82.422 23.523,-82.793ZM21.856,-120.392C22.844,-121.01 23.585,-121.318 24.078,-121.318C24.943,-121.318 26.672,-120.578 29.265,-119.096C32.475,-117.491 34.698,-115.854 35.932,-114.188C37.167,-112.521 37.785,-110.391 37.785,-107.797L37.785,-106.501C37.538,-104.155 35.778,-101.747 32.506,-99.277C29.234,-96.808 26.116,-95.573 23.152,-95.573C20.559,-95.573 18.182,-96.9 16.021,-99.555C13.861,-102.21 12.78,-105.204 12.78,-108.538C12.78,-110.267 13.151,-111.934 13.891,-113.539C14.756,-115.391 17.411,-117.676 21.856,-120.392Z" style="fill:rgb(253,0,106);fill-rule:nonzero;"/>
                </g>
                <g transform="matrix(1,0,0,1,456.438,495.979)">
                    <path d="M46.536,-43.758C44.499,-44.962 42.23,-45.564 39.729,-45.564C35.932,-45.564 32.923,-44.591 30.7,-42.647C30.515,-42.461 29.728,-41.257 28.338,-39.035C26.949,-36.812 25.977,-35.655 25.421,-35.562C24.68,-35.284 24.31,-33.015 24.31,-28.755C24.31,-23.754 24.449,-19.587 24.727,-16.253C24.912,-13.382 25.097,-11.646 25.282,-11.044C25.468,-10.442 25.884,-10.002 26.533,-9.724C26.718,-9.631 27.088,-9.585 27.644,-9.585C31.719,-9.585 36.349,-10.696 41.535,-12.919C43.573,-13.845 45.541,-15.304 47.439,-17.295C49.338,-19.286 50.704,-21.346 51.537,-23.476C52.371,-25.699 52.787,-27.644 52.787,-29.311C52.787,-29.496 52.764,-29.867 52.718,-30.422C52.672,-30.978 52.648,-31.395 52.648,-31.672C52.278,-37.414 50.241,-41.443 46.536,-43.758ZM10.835,-105.714C11.854,-106.547 12.965,-106.964 14.169,-106.964C15.651,-106.964 16.948,-106.316 18.059,-105.019C20.189,-102.704 22.226,-97.379 24.171,-89.044C25.097,-85.062 25.56,-78.996 25.56,-70.846C25.56,-67.049 25.444,-62.465 25.213,-57.094C24.981,-51.722 24.866,-48.805 24.866,-48.342C24.866,-47.694 24.912,-47.37 25.005,-47.37C25.282,-47.37 26.509,-47.81 28.686,-48.689C30.862,-49.569 32.089,-50.102 32.367,-50.287C34.404,-51.583 36.997,-52.232 40.146,-52.232L41.119,-52.232C42.971,-52.046 45.448,-51.19 48.55,-49.662C51.653,-48.134 53.991,-46.629 55.566,-45.147C57.418,-43.573 58.9,-40.794 60.011,-36.812C61.122,-33.2 61.678,-30.422 61.678,-28.477C61.678,-28.292 61.655,-27.945 61.608,-27.436C61.562,-26.926 61.539,-26.533 61.539,-26.255C61.261,-21.532 60.567,-17.85 59.455,-15.211C58.344,-12.572 56.399,-9.863 53.621,-7.085C51.954,-5.51 50.194,-3.959 48.342,-2.431C46.49,-0.903 45.379,-0.139 45.008,-0.139C44.73,-0.139 43.387,0.37 40.98,1.389C37.738,2.871 34.034,3.612 29.867,3.612C28.385,3.612 27.273,3.565 26.533,3.473L22.782,3.056L21.115,5.14C20.004,6.436 19.078,7.085 18.337,7.085C17.781,7.085 16.762,6.714 15.281,5.973C14.169,5.418 13.313,4.7 12.711,3.82C12.109,2.94 11.391,1.343 10.557,-0.972C10.28,-1.621 10.141,-8.011 10.141,-20.143C10.048,-33.015 9.4,-47.972 8.196,-65.012C7.548,-78.625 7.224,-86.636 7.224,-89.044L7.224,-91.544C7.224,-96.082 7.478,-99.3 7.988,-101.199C8.497,-103.097 9.446,-104.602 10.835,-105.714Z" style="fill:rgb(253,0,106);fill-rule:nonzero;"/>
                    <path d="M78.209,-70.429C78.394,-71.726 78.996,-72.837 80.014,-73.763C81.033,-74.689 82.191,-75.152 83.487,-75.152C84.969,-75.152 86.358,-74.458 87.655,-73.069C89.507,-70.939 90.641,-69.11 91.058,-67.582C91.475,-66.054 91.683,-62.789 91.683,-57.788C91.683,-52.695 91.498,-44.777 91.128,-34.034C90.942,-27.181 90.85,-23.476 90.85,-22.921C90.85,-19.587 91.081,-17.225 91.544,-15.836C92.1,-13.891 92.563,-12.549 92.933,-11.808C93.211,-11.437 93.674,-11.252 94.323,-11.252C95.434,-11.252 97.425,-11.761 100.296,-12.78C105.112,-14.54 108.353,-17.318 110.02,-21.115C110.668,-22.597 111.363,-23.847 112.104,-24.866C113.585,-26.533 114.511,-36.349 114.882,-54.315C115.067,-60.057 115.391,-63.808 115.854,-65.567C116.873,-69.179 118.355,-70.985 120.3,-70.985C121.226,-70.985 121.92,-71.309 122.383,-71.957C123.309,-73.161 124.374,-73.763 125.578,-73.763C126.134,-73.763 126.736,-73.624 127.384,-73.347C128.588,-72.791 129.19,-72.374 129.19,-72.096C129.19,-71.726 129.699,-71.448 130.718,-71.263C131.644,-70.985 132.107,-70.476 132.107,-69.735C132.107,-68.994 131.829,-67.929 131.274,-66.54C130.811,-65.336 130.579,-63.576 130.579,-61.261C130.579,-60.335 130.602,-59.154 130.649,-57.719C130.695,-56.283 130.764,-54.269 130.857,-51.676C130.95,-49.083 131.042,-46.675 131.135,-44.452C131.598,-31.024 131.829,-21.809 131.829,-16.809C131.829,-6.159 130.764,0.232 128.634,2.362C127.523,3.473 126.134,4.167 124.467,4.445C124.282,4.445 124.073,4.468 123.842,4.515C123.61,4.561 123.448,4.584 123.356,4.584C122.337,4.584 120.994,3.936 119.327,2.639C115.901,0.046 113.956,-3.565 113.493,-8.196C113.215,-10.974 112.844,-12.363 112.381,-12.363C112.196,-12.363 111.27,-11.761 109.603,-10.557C104.973,-7.038 99.879,-5.279 94.323,-5.279C92.841,-5.279 91.73,-5.325 90.989,-5.418C89.229,-5.603 87.979,-5.858 87.238,-6.182C86.497,-6.506 85.617,-7.131 84.599,-8.057C82.932,-9.539 81.681,-11.136 80.848,-12.85C80.014,-14.563 79.135,-17.549 78.209,-21.809C77.097,-26.718 76.542,-31.672 76.542,-36.673C76.542,-54.454 76.819,-64.456 77.375,-66.679C77.838,-68.531 78.116,-69.781 78.209,-70.429Z" style="fill:rgb(253,0,106);fill-rule:nonzero;"/>
                    <path d="M152.805,-106.408C153.083,-106.501 153.5,-106.547 154.056,-106.547C154.797,-106.547 156.834,-106.13 160.168,-105.297C162.39,-104.649 163.594,-103.861 163.78,-102.935L163.78,-100.574C163.78,-99.37 164.057,-97.795 164.613,-95.851C165.724,-91.405 166.465,-80.709 166.836,-63.762C167.021,-53.204 167.252,-47.786 167.53,-47.509L167.669,-47.509C168.04,-47.509 168.711,-48.018 169.683,-49.037C170.656,-50.055 171.374,-51.028 171.837,-51.954C172.3,-52.973 175.309,-56.26 180.866,-61.817C184.385,-65.243 186.724,-67.42 187.881,-68.346C189.039,-69.272 190.034,-69.735 190.868,-69.735L191.285,-69.735C193.322,-69.55 194.341,-68.762 194.341,-67.373C194.341,-65.521 192.859,-63.53 189.895,-61.4C188.228,-60.103 186.029,-58.089 183.297,-55.357C180.565,-52.625 178.319,-50.194 176.56,-48.064C176.282,-47.694 175.888,-47.184 175.379,-46.536C174.87,-45.888 174.43,-45.332 174.059,-44.869C173.689,-44.406 173.411,-44.082 173.226,-43.897C172.485,-42.878 172.114,-42.23 172.114,-41.952C172.114,-41.582 172.577,-41.072 173.504,-40.424C174.522,-39.776 175.749,-38.34 177.185,-36.118C178.62,-33.895 179.477,-32.598 179.755,-32.228C181.144,-30.283 182.857,-27.713 184.895,-24.518C186.932,-21.323 188.506,-18.892 189.618,-17.225C192.766,-12.502 194.757,-9.307 195.591,-7.64C197.999,-3.195 200.175,0 202.12,1.945C203.509,3.334 204.204,4.862 204.204,6.529C204.204,7.362 204.018,8.103 203.648,8.752C203,9.956 202.12,10.557 201.009,10.557C199.619,10.557 198.323,9.539 197.119,7.501C196.008,5.557 195.128,4.353 194.48,3.89C193.646,3.241 193.229,2.639 193.229,2.084C193.229,1.621 192.72,0.787 191.701,-0.417C190.868,-1.528 189.386,-4.121 187.256,-8.196C185.404,-11.808 183.505,-15.142 181.561,-18.198C180.727,-19.494 179.685,-21.184 178.435,-23.268C177.185,-25.352 176.05,-27.088 175.032,-28.477C173.365,-30.7 172.068,-32.367 171.142,-33.478C169.568,-35.516 168.549,-36.534 168.086,-36.534C167.53,-36.534 167.252,-35.284 167.252,-32.784C167.252,-30.561 167.299,-28.616 167.391,-26.949C167.854,-16.114 168.086,-8.381 168.086,-3.751C168.086,3.102 167.716,8.034 166.975,11.044C166.234,14.053 164.891,16.068 162.946,17.086C162.02,17.735 161.048,18.059 160.029,18.059C157.621,18.059 155.537,16.114 153.778,12.224C152.759,10.002 152.041,7.177 151.625,3.751C151.208,0.324 150.814,-5.695 150.444,-14.308C150.351,-16.623 149.471,-31.117 147.804,-57.788C147.434,-63.345 147.249,-66.355 147.249,-66.818C147.249,-69.689 147.11,-75.199 146.832,-83.348C146.647,-90.387 146.554,-94.137 146.554,-94.6C146.554,-97.564 146.832,-99.74 147.388,-101.129C148.314,-103.722 150.12,-105.482 152.805,-106.408Z" style="fill:rgb(253,0,106);fill-rule:nonzero;"/>
                    <path d="M229.764,-62.095C229.949,-62.465 230.412,-62.65 231.153,-62.65C232.172,-62.65 233.144,-62.326 234.07,-61.678C235.459,-60.752 236.709,-58.46 237.821,-54.802C238.932,-51.144 239.488,-47.74 239.488,-44.591L239.488,-42.924C239.303,-40.424 238.978,-34.705 238.515,-25.769C238.052,-16.832 237.821,-11.622 237.821,-10.141C237.821,-7.085 237.636,-3.565 237.265,0.417C236.802,4.862 236.27,7.802 235.668,9.238C235.066,10.673 234.024,11.391 232.542,11.391C230.875,11.391 229,10.256 226.916,7.988C224.832,5.719 223.281,3.195 222.262,0.417C220.503,-4.862 219.623,-16.021 219.623,-33.062C219.623,-39.729 219.855,-44.314 220.318,-46.814C221.244,-52.371 222.077,-55.982 222.818,-57.649C223.559,-59.316 224.855,-60.381 226.708,-60.844C228.56,-61.4 229.579,-61.817 229.764,-62.095ZM228.514,-90.294C229.254,-90.757 229.81,-90.989 230.18,-90.989C230.829,-90.989 232.125,-90.433 234.07,-89.322C236.478,-88.118 238.145,-86.891 239.071,-85.64C239.997,-84.39 240.46,-82.793 240.46,-80.848L240.46,-79.876C240.275,-78.116 238.955,-76.31 236.501,-74.458C234.047,-72.606 231.709,-71.68 229.486,-71.68C227.541,-71.68 225.758,-72.675 224.138,-74.666C222.517,-76.657 221.707,-78.903 221.707,-81.404C221.707,-82.7 221.985,-83.95 222.54,-85.154C223.188,-86.543 225.18,-88.257 228.514,-90.294Z" style="fill:rgb(253,0,106);fill-rule:nonzero;"/>
                    <path d="M300.054,-57.371C298.109,-58.205 296.118,-58.622 294.081,-58.622C290.932,-58.622 287.645,-57.603 284.218,-55.566C282.922,-54.825 281.301,-53.436 279.356,-51.398C277.411,-49.361 276.439,-48.018 276.439,-47.37C276.439,-47.184 276.346,-46.721 276.161,-45.981C275.883,-45.332 276.022,-45.008 276.578,-45.008C277.226,-45.101 277.874,-45.471 278.523,-46.119C279.171,-46.953 280.004,-47.462 281.023,-47.648C281.579,-47.74 283.709,-48.851 287.413,-50.981C290.562,-52.834 293.062,-53.945 294.914,-54.315C295.377,-54.408 296.118,-54.57 297.137,-54.802C298.156,-55.033 298.85,-55.149 299.221,-55.149C300.795,-55.427 301.582,-55.751 301.582,-56.121C301.582,-56.584 301.073,-57.001 300.054,-57.371ZM299.776,-4.723C301.814,-5.557 303.018,-5.973 303.388,-5.973C303.759,-5.973 304.476,-6.182 305.541,-6.598C306.606,-7.015 307.37,-7.224 307.833,-7.224C308.76,-7.224 309.223,-6.622 309.223,-5.418C309.223,-4.492 308.227,-3.172 306.236,-1.459C304.245,0.255 302.555,1.204 301.166,1.389C295.609,2.315 291.349,3.334 288.385,4.445C288.015,4.63 286.95,4.723 285.19,4.723C284.82,4.723 284.218,4.7 283.385,4.654C282.551,4.607 281.903,4.584 281.44,4.584C278.754,4.492 276.902,4.306 275.883,4.029C274.865,3.751 273.522,3.102 271.855,2.084C269.817,0.88 268.011,-0.509 266.437,-2.084C264.863,-3.658 262.918,-6.066 260.603,-9.307C257.084,-14.03 255.324,-18.939 255.324,-24.032C255.324,-26.162 255.602,-28.616 256.157,-31.395C257.176,-36.303 258.38,-40.517 259.769,-44.036C261.714,-49.037 265.071,-53.621 269.84,-57.788C274.61,-61.956 279.263,-64.363 283.801,-65.012C285.839,-65.382 288.71,-65.567 292.414,-65.567C296.489,-65.567 299.221,-65.197 300.61,-64.456C304.87,-62.141 307,-59.64 307,-56.955C307,-53.621 303.805,-50.843 297.415,-48.62C293.803,-47.323 289.613,-45.425 284.843,-42.924C280.074,-40.424 276.995,-38.479 275.605,-37.09L273.105,-34.728L273.244,-29.033C273.336,-22.736 274.61,-17.411 277.064,-13.058C279.518,-8.705 282.922,-5.881 287.274,-4.584C289.219,-3.936 291.349,-3.612 293.664,-3.612C295.979,-3.612 298.017,-3.982 299.776,-4.723Z" style="fill:rgb(253,0,106);fill-rule:nonzero;"/>
                    <path d="M352.703,-99.185C354.184,-100.203 355.481,-100.713 356.592,-100.713C357.333,-100.713 358.167,-100.481 359.093,-100.018C360.297,-99.37 361.107,-98.652 361.524,-97.865C361.94,-97.078 362.149,-95.527 362.149,-93.211C362.149,-92.47 362.056,-90.433 361.871,-87.099C361.593,-82.191 361.315,-78.07 361.037,-74.736C360.852,-73.532 360.829,-72.745 360.968,-72.374C361.107,-72.004 361.547,-71.68 362.288,-71.402C362.843,-71.217 363.445,-71.124 364.094,-71.124C365.205,-71.124 366.594,-71.263 368.261,-71.541C372.151,-72.004 375.021,-72.235 376.874,-72.235C379.837,-72.235 382.245,-71.772 384.097,-70.846C386.135,-69.735 387.153,-68.762 387.153,-67.929C387.153,-66.54 385.255,-65.845 381.458,-65.845C380.254,-65.845 379.328,-65.892 378.68,-65.984C378.124,-66.077 377.059,-66.123 375.485,-66.123C366.687,-66.123 361.825,-65.66 360.899,-64.734C360.713,-64.549 360.621,-62.048 360.621,-57.233C360.621,-48.713 360.806,-42.415 361.176,-38.34C361.732,-32.784 362.195,-26.301 362.566,-18.892C363.121,-8.335 363.538,-2.454 363.816,-1.25C364.094,0.324 364.233,2.362 364.233,4.862C364.233,9.77 363.862,13.058 363.121,14.725C361.917,17.596 360.297,19.031 358.259,19.031C356.777,19.031 355.157,18.29 353.397,16.809C351.915,15.512 350.92,14.123 350.411,12.641C349.901,11.159 349.461,8.103 349.091,3.473C348.535,-1.713 348.118,-5.094 347.841,-6.668C347.563,-8.242 347.239,-18.429 346.868,-37.229L346.452,-65.428L339.367,-65.428C335.014,-65.428 331.819,-65.243 329.782,-64.873C327.93,-64.502 326.633,-64.734 325.892,-65.567C324.874,-66.679 324.688,-67.836 325.337,-69.04C326.077,-70.337 330.337,-71.031 338.117,-71.124L346.313,-71.263L346.729,-73.069C346.915,-73.624 347.285,-76.866 347.841,-82.793C348.582,-92.054 350.202,-97.518 352.703,-99.185Z" style="fill:rgb(253,0,106);fill-rule:nonzero;"/>
                    <path d="M439.385,-74.041C440.959,-74.967 442.395,-75.43 443.691,-75.43C445.08,-75.43 446.192,-74.921 447.025,-73.902C447.859,-72.976 448.275,-71.355 448.275,-69.04C448.275,-67.003 447.812,-63.9 446.886,-59.733C444.108,-46.768 442.348,-39.405 441.608,-37.646C441.145,-36.442 440.589,-34.821 439.941,-32.784C439.292,-30.746 438.551,-28.802 437.718,-26.949C436.329,-23.801 435.449,-21.3 435.079,-19.448C434.801,-18.337 434.546,-17.457 434.315,-16.809C434.083,-16.16 433.759,-15.396 433.342,-14.517C432.925,-13.637 432.532,-12.734 432.161,-11.808C431.606,-10.419 431.004,-8.821 430.356,-7.015C429.707,-5.209 428.966,-3.241 428.133,-1.111C427.207,1.76 425.656,5.487 423.479,10.071C421.303,14.655 419.659,17.596 418.548,18.892C417.622,20.096 415.862,20.791 413.269,20.976C412.991,20.976 412.644,20.999 412.227,21.045C411.811,21.092 411.51,21.115 411.324,21.115C410.12,21.115 409.055,20.698 408.129,19.865C406.925,18.661 406.323,17.086 406.323,15.142C406.323,12.363 407.898,6.529 411.047,-2.362C414.566,-12.456 416.557,-18.105 417.02,-19.309C419.057,-24.217 420.076,-26.903 420.076,-27.366C420.076,-27.829 419.659,-28.987 418.826,-30.839C417.714,-33.432 416.279,-37.322 414.519,-42.508C413.593,-45.286 412.69,-47.532 411.811,-49.245C410.931,-50.958 410.074,-52.88 409.241,-55.01C407.574,-59.085 406.138,-61.77 404.934,-63.067L402.851,-65.428L404.379,-65.984C405.49,-66.262 406.138,-66.771 406.323,-67.512C406.601,-68.16 407.481,-68.485 408.963,-68.485C410.167,-68.485 411,-68.207 411.463,-67.651C411.741,-67.373 412.25,-65.938 412.991,-63.345C413.64,-61.122 414.566,-58.714 415.77,-56.121C418.548,-50.194 420.539,-45.054 421.743,-40.702C422.206,-39.035 422.669,-37.924 423.132,-37.368C423.41,-37.09 423.595,-36.951 423.688,-36.951C424.151,-36.951 424.845,-38.525 425.771,-41.674C426.234,-43.249 427.137,-45.888 428.48,-49.592C429.823,-53.297 430.726,-55.843 431.189,-57.233C433.041,-63.53 434.454,-67.651 435.426,-69.596C436.398,-71.541 437.718,-73.022 439.385,-74.041Z" style="fill:rgb(253,0,106);fill-rule:nonzero;"/>
                </g>
            </g>
        </g>
    </g>
</svg>
