<svg viewBox="0 0 365 240" xmlns="http://www.w3.org/2000/svg" xml:space="preserve" fill-rule="evenodd" clip-rule="evenodd" stroke-linejoin="round" stroke-miterlimit="2">
  <g id="logo">
    <path d="M15.549 61.236c-5.067 14.047-18.932 47.817-6.035 85.421 6.14 17.902 27.148 35.454 44.373 43.755 36.626 17.651 89.504 24.092 128.397 24.796 0 0 7.324-.205 7.146 4.963-.179 5.23-7.127 6.404-12.499 8.097-20.841 6.566-84.892 13.529-138.274 10.139 47.767-.307 52.756-2.196 76.49-5.366 17.705-2.365 35.302-5.615 52.484-10.263l.234-.063c-.893-.035-1.786-.072-2.679-.11-35.058-1.575-79.602-9.207-111.58-23.642-21.704-9.798-43.21-25.788-49.663-50.04-6.365-23.915-6.498-51.278 11.606-87.687Z" fill="#990065"/>
    <path d="M166.56 224.108c-.642-4.94 12.887-11.307 33.762-14.275 72.91-10.366 164.579-21.666 164.579-21.666S261.96 212.079 203.477 225.38c-21.032 4.783-36.283 3.613-36.917-1.272Zm9.908-1.861c-.374-2.105 7.694-5.3 18.004-7.13 10.311-1.83 18.985-1.607 19.359.498.373 2.105-7.694 5.299-18.005 7.129-10.31 1.831-18.984 1.608-19.358-.497Z" fill="#990065"/>
    <g font-family="'NoteToSelf-Regular', 'Note To Self'" fill="#fd006a">
      <text x="48.022" y="53.994" font-size="69.932">Szmatki</text>
      <text x="42.736" y="109.564" font-size="52.449">kwiatki</text>
      <text x="362.532" y="495.979" font-size="185.219" transform="matrix(.37756 0 0 .37756 -60.205 -15.155)">i</text>
      <text x="456.438" y="495.979" font-size="138.914" transform="matrix(.37756 0 0 .37756 -60.205 -15.155)">bukiety</text>
    </g>
  </g>
</svg>
