<?xml version="1.0" encoding="UTF-8" standalone="no"?>
<!DOCTYPE svg PUBLIC "-//W3C//DTD SVG 1.1//EN" "http://www.w3.org/Graphics/SVG/1.1/DTD/svg11.dtd">
<svg width="100%" height="100%" viewBox="0 0 46 48" version="1.1" xmlns="http://www.w3.org/2000/svg" xmlns:xlink="http://www.w3.org/1999/xlink" xml:space="preserve" xmlns:serif="http://www.serif.com/" style="fill-rule:evenodd;clip-rule:evenodd;stroke-linejoin:round;stroke-miterlimit:2;">
    <g transform="matrix(1.26751,0,0,0.5459,-3305.63,-232.2)">
        <g id="mail_icon">
            <g transform="matrix(0.26685,0,0,0.61958,2436.6,-1732.89)">
                <path d="M777,3526.93C777,3507.64 761.362,3492 742.072,3492L686.35,3492C667.816,3492 652.51,3506.48 651.476,3524.98L648.06,3586.12C647.523,3595.7 650.961,3605.1 657.557,3612.07C664.15,3619.05 673.336,3623 682.934,3623L742.072,3623C761.362,3623 777,3607.36 777,3588.07L777,3526.93Z" style="fill:rgb(112,101,215);"/>
            </g>
            <g transform="matrix(-0.02683,0,0,-0.07615,2629.6,709.61)">
                <path d="M777,3521.68C777,3505.29 760.757,3492 740.719,3492L730.319,3492C730.319,3492 706.341,3529.25 683.959,3564.03C675.932,3576.5 676.467,3591.49 685.368,3603.56C694.268,3615.62 710.237,3623 727.462,3623L727.833,3623C754.987,3623 777,3604.99 777,3582.77L777,3521.68Z" style="fill:rgb(112,101,215);"/>
            </g>
            <g transform="matrix(0.53347,0,0,1.23863,2613.1,494.177)">
                <path d="M37.312,-5.888C35.861,-5.888 34.565,-6.229 33.424,-6.912C32.283,-7.595 31.488,-8.693 31.04,-10.208C29.781,-8.672 28.448,-7.573 27.04,-6.912C25.632,-6.251 24.117,-5.92 22.496,-5.92C21.152,-5.92 19.984,-6.155 18.992,-6.624C18,-7.093 17.168,-7.739 16.496,-8.56C15.824,-9.381 15.323,-10.352 14.992,-11.472C14.661,-12.592 14.496,-13.813 14.496,-15.136C14.496,-16.352 14.651,-17.584 14.96,-18.832C15.269,-20.08 15.733,-21.285 16.352,-22.448C16.971,-23.611 17.744,-24.699 18.672,-25.712C19.6,-26.725 20.693,-27.611 21.952,-28.368C23.211,-29.125 24.619,-29.723 26.176,-30.16C27.733,-30.597 29.461,-30.816 31.36,-30.816C33.003,-30.816 34.411,-30.688 35.584,-30.432C36.757,-30.176 37.888,-29.813 38.976,-29.344L35.904,-17.472C35.563,-16.107 35.392,-14.965 35.392,-14.048C35.392,-13.408 35.472,-12.875 35.632,-12.448C35.792,-12.021 36.005,-11.68 36.272,-11.424C36.539,-11.168 36.864,-10.992 37.248,-10.896C37.632,-10.8 38.048,-10.752 38.496,-10.752C39.392,-10.752 40.24,-11.035 41.04,-11.6C41.84,-12.165 42.539,-12.96 43.136,-13.984C43.733,-15.008 44.208,-16.224 44.56,-17.632C44.912,-19.04 45.088,-20.576 45.088,-22.24C45.088,-25.013 44.656,-27.456 43.792,-29.568C42.928,-31.68 41.723,-33.445 40.176,-34.864C38.629,-36.283 36.779,-37.349 34.624,-38.064C32.469,-38.779 30.112,-39.136 27.552,-39.136C24.757,-39.136 22.16,-38.608 19.76,-37.552C17.36,-36.496 15.28,-35.051 13.52,-33.216C11.76,-31.381 10.384,-29.216 9.392,-26.72C8.4,-24.224 7.904,-21.536 7.904,-18.656C7.904,-15.157 8.448,-12.08 9.536,-9.424C10.624,-6.768 12.117,-4.549 14.016,-2.768C15.915,-0.987 18.149,0.352 20.72,1.248C23.291,2.144 26.069,2.592 29.056,2.592C30.699,2.592 32.235,2.501 33.664,2.32C35.093,2.139 36.405,1.893 37.6,1.584C38.795,1.275 39.883,0.923 40.864,0.528C41.845,0.133 42.72,-0.288 43.488,-0.736C43.915,-0.971 44.277,-1.088 44.576,-1.088C45.195,-1.088 45.632,-0.747 45.888,-0.064L46.976,2.784C44.757,4.235 42.165,5.419 39.2,6.336C36.235,7.253 32.853,7.712 29.056,7.712C25.195,7.712 21.621,7.104 18.336,5.888C15.051,4.672 12.208,2.928 9.808,0.656C7.408,-1.616 5.531,-4.384 4.176,-7.648C2.821,-10.912 2.144,-14.581 2.144,-18.656C2.144,-20.939 2.437,-23.157 3.024,-25.312C3.611,-27.467 4.448,-29.488 5.536,-31.376C6.624,-33.264 7.936,-34.997 9.472,-36.576C11.008,-38.155 12.715,-39.509 14.592,-40.64C16.469,-41.771 18.501,-42.651 20.688,-43.28C22.875,-43.909 25.163,-44.224 27.552,-44.224C30.581,-44.224 33.488,-43.717 36.272,-42.704C39.056,-41.691 41.52,-40.24 43.664,-38.352C45.808,-36.464 47.52,-34.16 48.8,-31.44C50.08,-28.72 50.72,-25.653 50.72,-22.24C50.72,-19.957 50.384,-17.819 49.712,-15.824C49.04,-13.829 48.101,-12.096 46.896,-10.624C45.691,-9.152 44.272,-7.995 42.64,-7.152C41.008,-6.309 39.232,-5.888 37.312,-5.888ZM24.064,-11.008C24.619,-11.008 25.179,-11.093 25.744,-11.264C26.309,-11.435 26.848,-11.739 27.36,-12.176C27.872,-12.613 28.341,-13.195 28.768,-13.92C29.195,-14.645 29.547,-15.552 29.824,-16.64L32.16,-25.664C31.477,-25.792 30.773,-25.856 30.048,-25.856C28.725,-25.856 27.488,-25.568 26.336,-24.992C25.184,-24.416 24.187,-23.637 23.344,-22.656C22.501,-21.675 21.835,-20.549 21.344,-19.28C20.853,-18.011 20.608,-16.693 20.608,-15.328C20.608,-13.963 20.901,-12.901 21.488,-12.144C22.075,-11.387 22.933,-11.008 24.064,-11.008Z" style="fill:rgb(222,219,246);fill-rule:nonzero;"/>
            </g>
            <g transform="matrix(0.08757,0,0,0.20333,2561.55,-299.144)">
                <circle cx="569.997" cy="3580" r="15.997" style="fill:rgb(112,101,215);"/>
            </g>
        </g>
    </g>
</svg>
