<svg viewBox="0 0 46 48" xmlns="http://www.w3.org/2000/svg" xml:space="preserve" fill-rule="evenodd" clip-rule="evenodd" stroke-linejoin="round" stroke-miterlimit="2">
  <g transform="matrix(1.26751 0 0 .5459 -3305.627 -232.2)">
    <g id="mail_icon">
      <path d="M777 3526.93c0-19.29-15.638-34.93-34.928-34.93H686.35c-18.534 0-33.84 14.48-34.874 32.98l-3.416 61.14a34.92 34.92 0 0 0 9.497 25.95 34.913 34.913 0 0 0 25.377 10.93h59.138c19.29 0 34.928-15.64 34.928-34.93v-61.14Z" fill="#7065D7" transform="matrix(.26685 0 0 .61958 2436.6 -1732.89)"/>
      <path d="M777 3521.68c0-16.39-16.243-29.68-36.281-29.68h-10.4s-23.978 37.25-46.36 72.03c-8.027 12.47-7.492 27.46 1.409 39.53 8.9 12.06 24.869 19.44 42.094 19.44h.371c27.154 0 49.167-18.01 49.167-40.23v-61.09Z" fill="#7065D7" transform="matrix(-.02683 0 0 -.07615 2629.6 709.61)"/>
      <text x="575.658" y="3511.24" font-family="'Lato-Bold', 'Lato', sans-serif" font-weight="700" font-size="64" fill="#DEDBF6" transform="matrix(.53347 0 0 1.23863 2306 -3854.95)">@</text>
      <circle cx="569.997" cy="3580" r="15.997" fill="#7065D7" transform="matrix(.08757 0 0 .20333 2561.55 -299.144)"/>
    </g>
  </g>
</svg>
